<?xml version="1.0" encoding="UTF-8" standalone="no"?>
<!-- Created with Inkscape (http://www.inkscape.org/) -->

<svg
   width="321.80914mm"
   height="93.263641mm"
   viewBox="0 0 321.80914 93.263641"
   version="1.1"
   id="svg35510"
   inkscape:version="1.2 (dc2aedaf03, 2022-05-15)"
   sodipodi:docname="top-insert.svg"
   xmlns:inkscape="http://www.inkscape.org/namespaces/inkscape"
   xmlns:sodipodi="http://sodipodi.sourceforge.net/DTD/sodipodi-0.dtd"
   xmlns="http://www.w3.org/2000/svg"
   xmlns:svg="http://www.w3.org/2000/svg">
  <sodipodi:namedview
     id="namedview35512"
     pagecolor="#ffffff"
     bordercolor="#000000"
     borderopacity="0.25"
     inkscape:showpageshadow="2"
     inkscape:pageopacity="0.0"
     inkscape:pagecheckerboard="0"
     inkscape:deskcolor="#d1d1d1"
     inkscape:document-units="mm"
     showgrid="false"
     inkscape:zoom="0.97579888"
     inkscape:cx="243.90272"
     inkscape:cy="215.20828"
     inkscape:window-width="1920"
     inkscape:window-height="1009"
     inkscape:window-x="-8"
     inkscape:window-y="-8"
     inkscape:window-maximized="1"
     inkscape:current-layer="layer5"
     showguides="false" />
  <defs
     id="defs35507" />
  <g
     inkscape:groupmode="layer"
     id="layer5"
     inkscape:label="top-insert"
     style="display:inline">
    <path
       id="path1723-2-4-9-4-5-7-3-8"
       style="display:inline;fill:none;stroke:#000000;stroke-width:0.0912075"
       transform="scale(-1,1)"
       d="m -186.1646,89.723999 a 2.1043961,2.1043963 0 0 1 -2.1044,2.104396 2.1043961,2.1043963 0 0 1 -2.10439,-2.104396 2.1043961,2.1043963 0 0 1 2.10439,-2.104396 2.1043961,2.1043963 0 0 1 2.1044,2.104396 z m 0,-86.1839986 a 2.1043961,2.1043963 0 0 1 -2.1044,2.1043964 2.1043961,2.1043963 0 0 1 -2.10439,-2.1043964 2.1043961,2.1043963 0 0 1 2.10439,-2.1043963 2.1043961,2.1043963 0 0 1 2.1044,2.1043963 z m -65,86.1839986 a 2.1043961,2.1043963 0 0 1 -2.1044,2.104396 2.1043961,2.1043963 0 0 1 -2.10439,-2.104396 2.1043961,2.1043963 0 0 1 2.10439,-2.104396 2.1043961,2.1043963 0 0 1 2.1044,2.104396 z m 0,-86.1839986 a 2.1043961,2.1043963 0 0 1 -2.1044,2.1043964 2.1043961,2.1043963 0 0 1 -2.10439,-2.1043964 2.1043961,2.1043963 0 0 1 2.10439,-2.1043963 2.1043961,2.1043963 0 0 1 2.1044,2.1043963 z m -64.99999,86.1839986 a 2.1043961,2.1043963 0 0 1 -2.10439,2.104396 2.1043961,2.1043963 0 0 1 -2.1044,-2.104396 2.1043961,2.1043963 0 0 1 2.1044,-2.104396 2.1043961,2.1043963 0 0 1 2.10439,2.104396 z m 0,-86.1839988 a 2.1043961,2.1043963 0 0 1 -2.10439,2.1043963 2.1043961,2.1043963 0 0 1 -2.1044,-2.1043963 2.1043961,2.1043963 0 0 1 2.1044,-2.1043963 2.1043961,2.1043963 0 0 1 2.10439,2.1043963 z m 180.5202,86.1839988 a 2.1043961,2.1043963 0 0 0 2.1044,2.104396 2.1043961,2.1043963 0 0 0 2.10439,-2.104396 2.1043961,2.1043963 0 0 0 -2.10439,-2.104396 2.1043961,2.1043963 0 0 0 -2.1044,2.104396 z m 0,-86.1839988 a 2.1043961,2.1043963 0 0 0 2.1044,2.1043963 2.1043961,2.1043963 0 0 0 2.10439,-2.1043963 2.1043961,2.1043963 0 0 0 -2.10439,-2.1043963 2.1043961,2.1043963 0 0 0 -2.1044,2.1043963 z m 64.999993,86.1839988 a 2.1043961,2.1043963 0 0 0 2.104396,2.104396 2.1043961,2.1043963 0 0 0 2.104396,-2.104396 2.1043961,2.1043963 0 0 0 -2.104396,-2.104396 2.1043961,2.1043963 0 0 0 -2.104396,2.104396 z m 0,-86.1839988 a 2.1043961,2.1043963 0 0 0 2.104396,2.1043963 2.1043961,2.1043963 0 0 0 2.104396,-2.1043963 2.1043961,2.1043963 0 0 0 -2.104396,-2.1043963 2.1043961,2.1043963 0 0 0 -2.104396,2.1043963 z M -5.6443961,89.723999 A 2.1043961,2.1043963 0 0 0 -3.54,91.828395 2.1043961,2.1043963 0 0 0 -1.4356039,89.723999 2.1043961,2.1043963 0 0 0 -3.54,87.619603 2.1043961,2.1043963 0 0 0 -5.6443961,89.723999 Z m 0,-86.183999 A 2.1043961,2.1043963 0 0 0 -3.54,5.6443963 2.1043961,2.1043963 0 0 0 -1.4356039,3.54 2.1043961,2.1043963 0 0 0 -3.54,1.4356036 2.1043961,2.1043963 0 0 0 -5.6443961,3.54 Z m -0.4232758,43.094151 a 1.6014706,1.6014706 0 0 0 1.6014706,1.601471 1.6014706,1.6014706 0 0 0 1.6014706,-1.601471 1.6014706,1.6014706 0 0 0 -1.6014706,-1.60147 1.6014706,1.6014706 0 0 0 -1.6014706,1.60147 z M -25.605491,88.77916 a 1.6014706,1.6014706 0 0 0 1.60147,1.60147 1.6014706,1.6014706 0 0 0 1.601471,-1.60147 1.6014706,1.6014706 0 0 0 -1.601471,-1.601471 1.6014706,1.6014706 0 0 0 -1.60147,1.601471 z m -84.999999,0 a 1.6014706,1.6014706 0 0 0 1.60147,1.60147 1.6014706,1.6014706 0 0 0 1.60147,-1.60147 1.6014706,1.6014706 0 0 0 -1.60147,-1.601471 1.6014706,1.6014706 0 0 0 -1.60147,1.601471 z m -103.801,0 a 1.6014706,1.6014706 0 0 0 1.60147,1.60147 1.6014706,1.6014706 0 0 0 1.60147,-1.60147 1.6014706,1.6014706 0 0 0 -1.60147,-1.601471 1.6014706,1.6014706 0 0 0 -1.60147,1.601471 z m -85,0 a 1.6014706,1.6014706 0 0 0 1.60147,1.60147 1.6014706,1.6014706 0 0 0 1.60147,-1.60147 1.6014706,1.6014706 0 0 0 -1.60147,-1.601471 1.6014706,1.6014706 0 0 0 -1.60147,1.601471 z m -19.53977,-42.146309 a 1.6014706,1.6014706 0 0 0 1.60147,1.60147 1.6014706,1.6014706 0 0 0 1.60147,-1.60147 1.6014706,1.6014706 0 0 0 -1.60147,-1.601471 1.6014706,1.6014706 0 0 0 -1.60147,1.601471 z m 19.53977,-42.1452936 a 1.6014706,1.6014706 0 0 0 1.60147,1.6014706 1.6014706,1.6014706 0 0 0 1.60147,-1.6014706 1.6014706,1.6014706 0 0 0 -1.60147,-1.6014706 1.6014706,1.6014706 0 0 0 -1.60147,1.6014706 z m 85,0 a 1.6014706,1.6014706 0 0 0 1.60147,1.6014706 1.6014706,1.6014706 0 0 0 1.60147,-1.6014706 1.6014706,1.6014706 0 0 0 -1.60147,-1.6014706 1.6014706,1.6014706 0 0 0 -1.60147,1.6014706 z m 103.801,0 a 1.6014706,1.6014706 0 0 0 1.60147,1.6014706 1.6014706,1.6014706 0 0 0 1.60147,-1.6014706 1.6014706,1.6014706 0 0 0 -1.60147,-1.6014706 1.6014706,1.6014706 0 0 0 -1.60147,1.6014706 z m 84.999999,0 a 1.6014706,1.6014706 0 0 0 1.60147,1.6014706 1.6014706,1.6014706 0 0 0 1.601471,-1.6014706 1.6014706,1.6014706 0 0 0 -1.601471,-1.6014706 1.6014706,1.6014706 0 0 0 -1.60147,1.6014706 z M -0.05,0.05 H -321.75914 V 93.21364 H -0.05 Z M -313.98543,7.8435726 H -7.8245721 V 85.417425 H -313.98543 V 64.971132 h 18.98069 l 0.002,-17.650266 h -18.98243 z" />
  </g>
</svg>
