<?xml version="1.0" encoding="UTF-8" standalone="no"?>
<!-- Created with Inkscape (http://www.inkscape.org/) -->

<svg
   width="321.80914mm"
   height="93.263641mm"
   viewBox="0 0 321.80914 93.263641"
   version="1.1"
   id="svg35510"
   inkscape:version="1.2 (dc2aedaf03, 2022-05-15)"
   sodipodi:docname="top-middle.svg"
   xmlns:inkscape="http://www.inkscape.org/namespaces/inkscape"
   xmlns:sodipodi="http://sodipodi.sourceforge.net/DTD/sodipodi-0.dtd"
   xmlns="http://www.w3.org/2000/svg"
   xmlns:svg="http://www.w3.org/2000/svg">
  <sodipodi:namedview
     id="namedview35512"
     pagecolor="#ffffff"
     bordercolor="#000000"
     borderopacity="0.25"
     inkscape:showpageshadow="2"
     inkscape:pageopacity="0.0"
     inkscape:pagecheckerboard="0"
     inkscape:deskcolor="#d1d1d1"
     inkscape:document-units="mm"
     showgrid="false"
     inkscape:zoom="2.759976"
     inkscape:cx="893.84835"
     inkscape:cy="41.667029"
     inkscape:window-width="1920"
     inkscape:window-height="1009"
     inkscape:window-x="1016"
     inkscape:window-y="-8"
     inkscape:window-maximized="1"
     inkscape:current-layer="svg35510"
     showguides="false" />
  <defs
     id="defs35507" />
  <g
     inkscape:groupmode="layer"
     id="layer4"
     inkscape:label="top-middle"
     style="display:inline">
    <path
       id="path6345-8-6-9-7-6-0-8-7-8-2"
       style="display:inline;fill:none;stroke:#000000;stroke-width:0.1;stroke-dasharray:none"
       d="M 0.05,0.05 H 321.75914 V 93.213641 H 0.05 Z m 21.333,86.187468 v 2.559447 c 1e-6,1.435926 1.164049,2.599973 2.599975,2.599974 1.435926,-10e-7 2.599974,-1.164048 2.599974,-2.599974 l -1e-6,-2.559447 79.801012,4.8e-5 v 2.559446 c 1e-5,1.435926 1.16405,2.599974 2.59998,2.599975 1.43593,-10e-7 2.59997,-1.164049 2.59997,-2.599975 v -2.559446 h 98.60105 v 2.559446 c 1e-5,1.435926 1.16405,2.599974 2.59998,2.599975 1.43593,-10e-7 2.59997,-1.164049 2.59997,-2.599975 v -2.559446 h 79.80005 v 2.559446 c 1e-5,1.435926 1.16405,2.599974 2.59998,2.599975 1.43593,-10e-7 2.59997,-1.164049 2.59997,-2.599975 V 86.237516 L 314.805,86.237 l 4.6e-4,-37.00705 h 2.55945 c 1.43593,-1e-5 2.59997,-1.16405 2.59998,-2.59998 -1e-5,-1.43593 -1.16405,-2.59997 -2.59998,-2.59997 h -2.55945 L 314.805,7.0244678 300.40595,7.0244202 v -2.559446 c 0,-1.435926 -1.16404,-2.5999741 -2.59997,-2.5999742 -1.43593,1e-7 -2.59997,1.1640482 -2.59998,2.5999742 v 2.559446 h -79.80005 v -2.559446 c 0,-1.435926 -1.16404,-2.5999741 -2.59997,-2.5999742 -1.43593,1e-7 -2.59997,1.1640482 -2.59998,2.5999742 v 2.559446 h -98.60105 v -2.559446 c 0,-1.435926 -1.16404,-2.5999741 -2.59997,-2.5999742 -1.43593,1e-7 -2.59997,1.1640482 -2.59998,2.5999742 v 2.559446 l -79.801006,4.8e-5 1e-6,-2.5594462 c 0,-1.435926 -1.164048,-2.5999739 -2.599974,-2.599974 -1.435926,1e-7 -2.599974,1.164048 -2.599975,2.599974 V 7.0244682 H 7.0054682 L 7.00543,44.030532 H 4.44598 c -1.43593,0 -2.59997,1.16404 -2.59998,2.59997 10e-6,1.43593 1.16405,2.59997 2.59998,2.59998 h 2.55945 l 3.82e-5,37.006522 z"
       sodipodi:nodetypes="ccccccsssccsssccsssccssscccssscccsssccsssccsssccssscccsccccc" />
    <circle
       style="display:inline;fill:none;stroke:#000000;stroke-width:0.0699965;stroke-dasharray:none"
       id="path1723-2-4"
       cx="3.54"
       cy="3.54"
       r="1.6150018" />
    <circle
       style="display:inline;fill:none;stroke:#000000;stroke-width:0.0699965;stroke-dasharray:none"
       id="path1723-2-4-9-4"
       cx="3.54"
       cy="89.723999"
       r="1.6150018" />
    <circle
       style="display:inline;fill:none;stroke:#000000;stroke-width:0.0699965;stroke-dasharray:none"
       id="path1723-2-4-9-2"
       cx="68.540001"
       cy="3.5400002"
       r="1.6150018" />
    <circle
       style="display:inline;fill:none;stroke:#000000;stroke-width:0.0699965;stroke-dasharray:none"
       id="path1723-2-4-9-4-5"
       cx="68.540001"
       cy="89.723999"
       r="1.6150018" />
    <circle
       style="display:inline;fill:none;stroke:#000000;stroke-width:0.0699965;stroke-dasharray:none"
       id="path1723-2-4-9-2-7"
       cx="133.53999"
       cy="3.5400002"
       r="1.6150018" />
    <circle
       style="display:inline;fill:none;stroke:#000000;stroke-width:0.0699965;stroke-dasharray:none"
       id="path1723-2-4-9-4-5-7"
       cx="133.53999"
       cy="89.723999"
       r="1.6150018" />
    <circle
       style="display:inline;fill:none;stroke:#000000;stroke-width:0.0699965;stroke-dasharray:none"
       id="path1723-2-4-3"
       cx="-318.26898"
       cy="3.5400002"
       transform="scale(-1,1)"
       r="1.6150018" />
    <circle
       style="display:inline;fill:none;stroke:#000000;stroke-width:0.0699965;stroke-dasharray:none"
       id="path1723-2-4-9-4-4"
       cx="-318.26898"
       cy="89.723999"
       transform="scale(-1,1)"
       r="1.6150018" />
    <circle
       style="display:inline;fill:none;stroke:#000000;stroke-width:0.0699965;stroke-dasharray:none"
       id="path1723-2-4-9-2-5"
       cx="-253.269"
       cy="3.5400004"
       transform="scale(-1,1)"
       r="1.6150018" />
    <circle
       style="display:inline;fill:none;stroke:#000000;stroke-width:0.0699965;stroke-dasharray:none"
       id="path1723-2-4-9-4-5-8"
       cx="-253.269"
       cy="89.723999"
       transform="scale(-1,1)"
       r="1.6150018" />
    <circle
       style="display:inline;fill:none;stroke:#000000;stroke-width:0.0699965;stroke-dasharray:none"
       id="path1723-2-4-9-2-7-8"
       cx="-188.269"
       cy="3.5400004"
       transform="scale(-1,1)"
       r="1.6150018" />
    <circle
       style="display:inline;fill:none;stroke:#000000;stroke-width:0.0699965;stroke-dasharray:none"
       id="path1723-2-4-9-4-5-7-3"
       cx="-188.269"
       cy="89.723999"
       transform="scale(-1,1)"
       r="1.6150018" />
  </g>
</svg>
