<?xml version="1.0" encoding="UTF-8" standalone="no"?>
<!-- Created with Inkscape (http://www.inkscape.org/) -->

<svg
   width="279.9642mm"
   height="44.964184mm"
   viewBox="0 0 279.9642 44.964184"
   version="1.1"
   id="svg35510"
   inkscape:version="1.2 (dc2aedaf03, 2022-05-15)"
   sodipodi:docname="weight.svg"
   xmlns:inkscape="http://www.inkscape.org/namespaces/inkscape"
   xmlns:sodipodi="http://sodipodi.sourceforge.net/DTD/sodipodi-0.dtd"
   xmlns="http://www.w3.org/2000/svg"
   xmlns:svg="http://www.w3.org/2000/svg">
  <sodipodi:namedview
     id="namedview35512"
     pagecolor="#ffffff"
     bordercolor="#000000"
     borderopacity="0.25"
     inkscape:showpageshadow="2"
     inkscape:pageopacity="0.0"
     inkscape:pagecheckerboard="0"
     inkscape:deskcolor="#d1d1d1"
     inkscape:document-units="mm"
     showgrid="false"
     inkscape:zoom="1.9515977"
     inkscape:cx="151.1582"
     inkscape:cy="122.46376"
     inkscape:window-width="1920"
     inkscape:window-height="1009"
     inkscape:window-x="-8"
     inkscape:window-y="-8"
     inkscape:window-maximized="1"
     inkscape:current-layer="layer7"
     showguides="false" />
  <defs
     id="defs35507">
    <inkscape:path-effect
       effect="fillet_chamfer"
       id="path-effect1752"
       is_visible="true"
       lpeversion="1"
       nodesatellites_param="F,0,1,1,0,3,0,1 @ F,0,1,1,0,3,0,1 @ F,0,1,1,0,3,0,1 @ F,0,1,1,0,3,0,1"
       unit="mm"
       method="auto"
       mode="F"
       radius="3"
       chamfer_steps="1"
       flexible="false"
       use_knot_distance="true"
       apply_no_radius="true"
       apply_with_radius="true"
       only_selected="true"
       hide_knots="false" />
  </defs>
  <g
     inkscape:groupmode="layer"
     id="layer7"
     inkscape:label="weight"
     style="display:inline"
     transform="translate(-20.922483,-16.77892)">
    <path
       id="path594-6-9-5"
       style="display:inline;fill:none;stroke:#000000;stroke-width:0.0651334"
       d="m 23.955046,16.811487 h 17.11869 17.118691 17.11869 17.11869 17.118693 17.11869 17.11869 17.11869 17.11869 17.11869 17.11869 17.11869 17.11869 17.11869 17.11869 17.11869 l 0.30673,0.01549 0.29787,0.04546 0.28751,0.07392 0.27563,0.100881 0.26224,0.126329 0.24735,0.150269 0.23095,0.172701 0.21304,0.193626 0.19363,0.213041 0.1727,0.23095 0.15027,0.247351 0.12633,0.262243 0.10088,0.275627 0.0739,0.287503 0.0455,0.297872 0.0155,0.306733 v 2.431191 2.43119 2.431191 2.43119 2.43119 2.431191 2.431191 2.43119 2.431191 2.43119 2.431191 2.43119 2.431191 2.43119 2.43119 2.431191 l -0.0155,0.306733 -0.0455,0.297872 -0.0739,0.287503 -0.10088,0.275627 -0.12633,0.262243 -0.15027,0.247351 -0.1727,0.23095 -0.19363,0.213041 -0.21304,0.193626 -0.23095,0.172701 -0.24735,0.150269 -0.26224,0.126329 -0.27563,0.100881 -0.28751,0.07393 -0.29787,0.04546 -0.30673,0.01549 H 280.7354 263.61671 246.49802 229.37933 212.26064 195.14195 178.02326 160.90457 143.78588 126.66719 109.5485 92.429807 75.311117 58.192427 41.073736 23.955046 l -0.306733,-0.01549 -0.297872,-0.04546 -0.287503,-0.07393 -0.275627,-0.100881 -0.262243,-0.126329 -0.247351,-0.150269 -0.23095,-0.172701 L 21.833726,60.831851 21.6401,60.61881 21.467399,60.38786 21.31713,60.140509 21.190801,59.878266 21.08992,59.602639 21.016,59.315136 20.97054,59.017264 20.95505,58.710531 v -2.431191 -2.43119 -2.43119 -2.431191 -2.43119 -2.431191 -2.43119 -2.431191 -2.43119 -2.431191 -2.431191 -2.43119 -2.43119 -2.431191 -2.43119 -2.431191 l 0.01549,-0.306733 0.04546,-0.297872 0.07392,-0.287503 0.100881,-0.275627 0.126329,-0.262243 0.150269,-0.247351 0.172701,-0.23095 0.193626,-0.213041 0.213041,-0.193626 0.23095,-0.172701 0.247351,-0.150269 0.262243,-0.126329 0.275627,-0.100881 0.287503,-0.07392 0.297872,-0.04546 z m 266.399954,12.82669 -0.008,0.163591 -0.0242,0.158865 -0.0394,0.153335 -0.0538,0.147001 -0.0674,0.139863 -0.0801,0.13192 -0.0921,0.123174 -0.10327,0.113622 -0.11362,0.103267 -0.12317,0.09211 -0.13192,0.08014 -0.13987,0.06738 -0.147,0.0538 -0.15333,0.03943 -0.15887,0.02425 -0.16359,0.0083 -0.16359,-0.0083 -0.15887,-0.02425 -0.15333,-0.03943 -0.147,-0.0538 -0.13987,-0.06738 -0.13192,-0.08014 -0.12317,-0.09211 -0.11362,-0.103267 -0.10327,-0.113622 -0.0921,-0.123174 -0.0801,-0.13192 -0.0674,-0.139863 -0.0538,-0.147001 -0.0394,-0.153335 -0.0242,-0.158865 -0.008,-0.163591 0.008,-0.163591 0.0242,-0.158865 0.0394,-0.153335 0.0538,-0.147001 0.0674,-0.139863 0.0801,-0.13192 0.0921,-0.123174 0.10327,-0.113622 0.11362,-0.103267 0.12317,-0.09211 0.13192,-0.08014 0.13987,-0.06737 0.147,-0.0538 0.15333,-0.03943 0.15887,-0.02425 0.16359,-0.0083 0.16359,0.0083 0.15887,0.02425 0.15333,0.03943 0.147,0.0538 0.13987,0.06737 0.13192,0.08014 0.12317,0.09211 0.11362,0.103267 0.10327,0.113622 0.0921,0.123174 0.0801,0.13192 0.0674,0.139863 0.0538,0.147001 0.0394,0.153335 0.0242,0.158865 z m -255.7,0 -0.0083,0.163591 -0.02424,0.158865 -0.03943,0.153335 -0.0538,0.147001 -0.06737,0.139863 -0.08014,0.13192 -0.09211,0.123174 -0.103267,0.113622 -0.113622,0.103267 -0.123174,0.09211 -0.13192,0.08014 -0.139863,0.06738 -0.147001,0.0538 -0.153335,0.03943 -0.158865,0.02425 -0.163591,0.0083 -0.163591,-0.0083 -0.158865,-0.02425 -0.153335,-0.03943 -0.147001,-0.0538 -0.139863,-0.06738 -0.13192,-0.08014 -0.123174,-0.09211 -0.113622,-0.103267 -0.103267,-0.113622 -0.09211,-0.123174 -0.08014,-0.13192 -0.06737,-0.139863 -0.0538,-0.147001 -0.03943,-0.153335 -0.02425,-0.158865 -0.0083,-0.163591 0.0083,-0.163591 0.02425,-0.158865 0.03943,-0.153335 0.0538,-0.147001 0.06737,-0.139863 0.08014,-0.13192 0.09211,-0.123174 0.103267,-0.113622 0.113622,-0.103267 0.123174,-0.09211 0.13192,-0.08014 0.139863,-0.06737 0.147001,-0.0538 0.153335,-0.03943 0.158865,-0.02425 0.163591,-0.0083 0.163591,0.0083 0.158865,0.02425 0.153335,0.03943 0.147001,0.0538 0.139863,0.06737 0.13192,0.08014 0.123174,0.09211 0.113622,0.103267 0.103267,0.113622 0.09211,0.123174 0.08014,0.13192 0.06737,0.139863 0.0538,0.147001 0.03943,0.153335 0.02424,0.158865 z"
       sodipodi:nodetypes="ccccccccccccccccccccccccccccccccccccccccccccccccccccccccccccccccccccccccccccccccccccccccccccccccccccccccccccccccccccccccccccccccccccccccccccccccccccccccccccccccccccccccccccccccccccccccccccccccccccccccccccccccccccccccccccccccccccccccccccccccccccccccccccccccccc" />
  </g>
</svg>
