<?xml version="1.0" encoding="UTF-8" standalone="no"?>
<!-- Created with Inkscape (http://www.inkscape.org/) -->

<svg
   width="317.53802mm"
   height="88.950981mm"
   viewBox="0 0 317.53802 88.950981"
   version="1.1"
   id="svg35510"
   inkscape:version="1.2 (dc2aedaf03, 2022-05-15)"
   sodipodi:docname="plate.svg"
   xmlns:inkscape="http://www.inkscape.org/namespaces/inkscape"
   xmlns:sodipodi="http://sodipodi.sourceforge.net/DTD/sodipodi-0.dtd"
   xmlns="http://www.w3.org/2000/svg"
   xmlns:svg="http://www.w3.org/2000/svg">
  <sodipodi:namedview
     id="namedview35512"
     pagecolor="#ffffff"
     bordercolor="#000000"
     borderopacity="0.25"
     inkscape:showpageshadow="2"
     inkscape:pageopacity="0.0"
     inkscape:pagecheckerboard="0"
     inkscape:deskcolor="#d1d1d1"
     inkscape:document-units="mm"
     showgrid="false"
     inkscape:zoom="3.9031955"
     inkscape:cx="-29.463039"
     inkscape:cy="188.56345"
     inkscape:window-width="1920"
     inkscape:window-height="1009"
     inkscape:window-x="-8"
     inkscape:window-y="-8"
     inkscape:window-maximized="1"
     inkscape:current-layer="layer3"
     showguides="false" />
  <defs
     id="defs35507">
    <inkscape:path-effect
       effect="fillet_chamfer"
       id="path-effect365"
       is_visible="true"
       lpeversion="1"
       nodesatellites_param="F,0,1,1,0,1,0,1 @ F,0,0,1,0,0,0,1 @ F,0,0,1,0,0,0,1 @ F,0,0,1,0,0,0,1 @ F,0,1,1,0,1,0,1 @ F,0,1,1,0,1,0,1 @ F,0,0,1,0,0,0,1 @ F,0,0,1,0,0,0,1 @ F,0,0,1,0,0,0,1 @ F,0,1,1,0,1,0,1 @ F,0,1,1,0,1,0,1 @ F,0,0,1,0,0,0,1 @ F,0,0,1,0,0,0,1 @ F,0,0,1,0,0,0,1 @ F,0,1,1,0,1,0,1 @ F,0,1,1,0,1,0,1 @ F,0,1,1,0,1,0,1 @ F,0,0,1,0,0,0,1 @ F,0,0,1,0,0,0,1 @ F,0,0,1,0,0,0,1 @ F,0,1,1,0,1,0,1 @ F,0,1,1,0,1,0,1 @ F,0,1,1,0,1,0,1 @ F,0,0,1,0,0,0,1 @ F,0,0,1,0,0,0,1 @ F,0,0,1,0,0,0,1 @ F,0,1,1,0,1,0,1 @ F,0,1,1,0,1,0,1 @ F,0,0,1,0,0,0,1 @ F,0,0,1,0,0,0,1 @ F,0,0,1,0,0,0,1 @ F,0,1,1,0,1,0,1 @ F,0,1,1,0,1,0,1 @ F,0,0,1,0,0,0,1 @ F,0,0,1,0,0,0,1 @ F,0,0,1,0,0,0,1 @ F,0,1,1,0,1,0,1 @ F,0,1,1,0,1,0,1 @ F,0,0,1,0,0,0,1 @ F,0,0,1,0,0,0,1 @ F,0,0,1,0,0,0,1 @ F,0,1,1,0,1,0,1 @ F,0,1,1,0,1,0,1 @ F,0,1,1,0,1,0,1 @ F,0,0,1,0,0,0,1 @ F,0,0,1,0,0,0,1 @ F,0,0,1,0,0,0,1 @ F,0,1,1,0,1,0,1 @ F,0,1,1,0,1,0,1 @ F,0,1,1,0,1,0,1 @ F,0,0,1,0,0,0,1 @ F,0,0,1,0,0,0,1 @ F,0,0,1,0,0,0,1 @ F,0,1,1,0,1,0,1 | F,0,0,1,0,0,0,1 @ F,0,0,1,0,0,0,1 @ F,0,0,1,0,0,0,1 @ F,0,0,1,0,0,0,1 | F,0,0,1,0,0,0,1 @ F,0,0,1,0,0,0,1 @ F,0,0,1,0,0,0,1 @ F,0,0,1,0,0,0,1 | F,0,0,1,0,0,0,1 @ F,0,0,1,0,0,0,1 @ F,0,0,1,0,0,0,1 @ F,0,0,1,0,0,0,1 | F,0,0,1,0,0,0,1 @ F,0,0,1,0,0,0,1 @ F,0,0,1,0,0,0,1 @ F,0,0,1,0,0,0,1 | F,0,0,1,0,0,0,1 @ F,0,0,1,0,0,0,1 @ F,0,0,1,0,0,0,1 @ F,0,0,1,0,0,0,1 | F,0,0,1,0,0,0,1 @ F,0,0,1,0,0,0,1 @ F,0,0,1,0,0,0,1 @ F,0,0,1,0,0,0,1 | F,0,0,1,0,0,0,1 @ F,0,0,1,0,0,0,1 @ F,0,0,1,0,0,0,1 @ F,0,0,1,0,0,0,1 | F,0,0,1,0,0,0,1 @ F,0,0,1,0,0,0,1 @ F,0,0,1,0,0,0,1 @ F,0,0,1,0,0,0,1 | F,0,0,1,0,0,0,1 @ F,0,0,1,0,0,0,1 @ F,0,0,1,0,0,0,1 @ F,0,0,1,0,0,0,1 | F,0,0,1,0,0,0,1 @ F,0,0,1,0,0,0,1 @ F,0,0,1,0,0,0,1 @ F,0,0,1,0,0,0,1 | F,0,0,1,0,0,0,1 @ F,0,0,1,0,0,0,1 @ F,0,0,1,0,0,0,1 @ F,0,0,1,0,0,0,1 | F,0,0,1,0,0,0,1 @ F,0,0,1,0,0,0,1 @ F,0,0,1,0,0,0,1 @ F,0,0,1,0,0,0,1 | F,0,0,1,0,0,0,1 @ F,0,0,1,0,0,0,1 @ F,0,0,1,0,0,0,1 @ F,0,0,1,0,0,0,1 | F,0,0,1,0,0,0,1 @ F,0,0,1,0,0,0,1 @ F,0,0,1,0,0,0,1 @ F,0,0,1,0,0,0,1 | F,0,0,1,0,0,0,1 @ F,0,0,1,0,0,0,1 @ F,0,0,1,0,0,0,1 @ F,0,0,1,0,0,0,1 | F,0,0,1,0,0,0,1 @ F,0,0,1,0,0,0,1 @ F,0,0,1,0,0,0,1 @ F,0,0,1,0,0,0,1 | F,0,0,1,0,0,0,1 @ F,0,0,1,0,0,0,1 @ F,0,0,1,0,0,0,1 @ F,0,0,1,0,0,0,1 | F,0,0,1,0,0,0,1 @ F,0,0,1,0,0,0,1 @ F,0,0,1,0,0,0,1 @ F,0,0,1,0,0,0,1 | F,0,0,1,0,0,0,1 @ F,0,0,1,0,0,0,1 @ F,0,0,1,0,0,0,1 @ F,0,0,1,0,0,0,1 | F,0,0,1,0,0,0,1 @ F,0,0,1,0,0,0,1 @ F,0,0,1,0,0,0,1 @ F,0,0,1,0,0,0,1 | F,0,0,1,0,0,0,1 @ F,0,0,1,0,0,0,1 @ F,0,0,1,0,0,0,1 @ F,0,0,1,0,0,0,1 | F,0,0,1,0,0,0,1 @ F,0,0,1,0,0,0,1 @ F,0,0,1,0,0,0,1 @ F,0,0,1,0,0,0,1 | F,0,0,1,0,0,0,1 @ F,0,0,1,0,0,0,1 @ F,0,0,1,0,0,0,1 @ F,0,0,1,0,0,0,1 | F,0,0,1,0,0,0,1 @ F,0,0,1,0,0,0,1 @ F,0,0,1,0,0,0,1 @ F,0,0,1,0,0,0,1 | F,0,0,1,0,0,0,1 @ F,0,0,1,0,0,0,1 @ F,0,0,1,0,0,0,1 @ F,0,0,1,0,0,0,1 | F,0,0,1,0,0,0,1 @ F,0,0,1,0,0,0,1 @ F,0,0,1,0,0,0,1 @ F,0,0,1,0,0,0,1 | F,0,0,1,0,0,0,1 @ F,0,0,1,0,0,0,1 @ F,0,0,1,0,0,0,1 @ F,0,0,1,0,0,0,1 | F,0,0,1,0,0,0,1 @ F,0,0,1,0,0,0,1 @ F,0,0,1,0,0,0,1 @ F,0,0,1,0,0,0,1 | F,0,0,1,0,0,0,1 @ F,0,0,1,0,0,0,1 @ F,0,0,1,0,0,0,1 @ F,0,0,1,0,0,0,1 | F,0,0,1,0,0,0,1 @ F,0,0,1,0,0,0,1 @ F,0,0,1,0,0,0,1 @ F,0,0,1,0,0,0,1 | F,0,0,1,0,0,0,1 @ F,0,0,1,0,0,0,1 @ F,0,0,1,0,0,0,1 @ F,0,0,1,0,0,0,1 | F,0,0,1,0,0,0,1 @ F,0,0,1,0,0,0,1 @ F,0,0,1,0,0,0,1 @ F,0,0,1,0,0,0,1 | F,0,0,1,0,0,0,1 @ F,0,0,1,0,0,0,1 @ F,0,0,1,0,0,0,1 @ F,0,0,1,0,0,0,1 | F,0,0,1,0,0,0,1 @ F,0,0,1,0,0,0,1 @ F,0,0,1,0,0,0,1 @ F,0,0,1,0,0,0,1 | F,0,0,1,0,0,0,1 @ F,0,0,1,0,0,0,1 @ F,0,0,1,0,0,0,1 @ F,0,0,1,0,0,0,1 | F,0,0,1,0,0,0,1 @ F,0,0,1,0,0,0,1 @ F,0,0,1,0,0,0,1 @ F,0,0,1,0,0,0,1 | F,0,0,1,0,0,0,1 @ F,0,0,1,0,0,0,1 @ F,0,0,1,0,0,0,1 @ F,0,0,1,0,0,0,1 | F,0,0,1,0,0,0,1 @ F,0,0,1,0,0,0,1 @ F,0,0,1,0,0,0,1 @ F,0,0,1,0,0,0,1 | F,0,0,1,0,0,0,1 @ F,0,0,1,0,0,0,1 @ F,0,0,1,0,0,0,1 @ F,0,0,1,0,0,0,1 | F,0,0,1,0,0,0,1 @ F,0,0,1,0,0,0,1 @ F,0,0,1,0,0,0,1 @ F,0,0,1,0,0,0,1 | F,0,0,1,0,0,0,1 @ F,0,0,1,0,0,0,1 @ F,0,0,1,0,0,0,1 @ F,0,0,1,0,0,0,1 | F,0,0,1,0,0,0,1 @ F,0,0,1,0,0,0,1 @ F,0,0,1,0,0,0,1 @ F,0,0,1,0,0,0,1 | F,0,0,1,0,0,0,1 @ F,0,0,1,0,0,0,1 @ F,0,0,1,0,0,0,1 @ F,0,0,1,0,0,0,1 | F,0,0,1,0,0,0,1 @ F,0,0,1,0,0,0,1 @ F,0,0,1,0,0,0,1 @ F,0,0,1,0,0,0,1 | F,0,0,1,0,0,0,1 @ F,0,0,1,0,0,0,1 @ F,0,0,1,0,0,0,1 @ F,0,0,1,0,0,0,1 | F,0,0,1,0,0,0,1 @ F,0,0,1,0,0,0,1 @ F,0,0,1,0,0,0,1 @ F,0,0,1,0,0,0,1 | F,0,0,1,0,0,0,1 @ F,0,0,1,0,0,0,1 @ F,0,0,1,0,0,0,1 @ F,0,0,1,0,0,0,1 | F,0,0,1,0,0,0,1 @ F,0,0,1,0,0,0,1 @ F,0,0,1,0,0,0,1 @ F,0,0,1,0,0,0,1 | F,0,0,1,0,0,0,1 @ F,0,0,1,0,0,0,1 @ F,0,0,1,0,0,0,1 @ F,0,0,1,0,0,0,1 | F,0,0,1,0,0,0,1 @ F,0,0,1,0,0,0,1 @ F,0,0,1,0,0,0,1 @ F,0,0,1,0,0,0,1 | F,0,0,1,0,0,0,1 @ F,0,0,1,0,0,0,1 @ F,0,0,1,0,0,0,1 @ F,0,0,1,0,0,0,1 | F,0,0,1,0,0,0,1 @ F,0,0,1,0,0,0,1 @ F,0,0,1,0,0,0,1 @ F,0,0,1,0,0,0,1 | F,0,0,1,0,0,0,1 @ F,0,0,1,0,0,0,1 @ F,0,0,1,0,0,0,1 @ F,0,0,1,0,0,0,1 | F,0,0,1,0,0,0,1 @ F,0,0,1,0,0,0,1 @ F,0,0,1,0,0,0,1 @ F,0,0,1,0,0,0,1 | F,0,0,1,0,0,0,1 @ F,0,0,1,0,0,0,1 @ F,0,0,1,0,0,0,1 @ F,0,0,1,0,0,0,1 | F,0,0,1,0,0,0,1 @ F,0,0,1,0,0,0,1 @ F,0,0,1,0,0,0,1 @ F,0,0,1,0,0,0,1 | F,0,0,1,0,0,0,1 @ F,0,0,1,0,0,0,1 @ F,0,0,1,0,0,0,1 @ F,0,0,1,0,0,0,1 | F,0,0,1,0,0,0,1 @ F,0,0,1,0,0,0,1 @ F,0,0,1,0,0,0,1 @ F,0,0,1,0,0,0,1 | F,0,0,1,0,0,0,1 @ F,0,0,1,0,0,0,1 @ F,0,0,1,0,0,0,1 @ F,0,0,1,0,0,0,1 | F,0,0,1,0,0,0,1 @ F,0,0,1,0,0,0,1 @ F,0,0,1,0,0,0,1 @ F,0,0,1,0,0,0,1 | F,0,0,1,0,0,0,1 @ F,0,0,1,0,0,0,1 @ F,0,0,1,0,0,0,1 @ F,0,0,1,0,0,0,1 | F,0,0,1,0,0,0,1 @ F,0,0,1,0,0,0,1 @ F,0,0,1,0,0,0,1 @ F,0,0,1,0,0,0,1 | F,0,0,1,0,0,0,1 @ F,0,0,1,0,0,0,1 @ F,0,0,1,0,0,0,1 @ F,0,0,1,0,0,0,1 | F,0,0,1,0,0,0,1 @ F,0,0,1,0,0,0,1 @ F,0,0,1,0,0,0,1 @ F,0,0,1,0,0,0,1 | F,0,0,1,0,0,0,1 @ F,0,0,1,0,0,0,1 @ F,0,0,1,0,0,0,1 @ F,0,0,1,0,0,0,1 | F,0,0,1,0,0,0,1 @ F,0,0,1,0,0,0,1 @ F,0,0,1,0,0,0,1 @ F,0,0,1,0,0,0,1 | F,0,0,1,0,0,0,1 @ F,0,0,1,0,0,0,1 @ F,0,0,1,0,0,0,1 @ F,0,0,1,0,0,0,1 | F,0,0,1,0,0,0,1 @ F,0,0,1,0,0,0,1 @ F,0,0,1,0,0,0,1 @ F,0,0,1,0,0,0,1 | F,0,0,1,0,0,0,1 @ F,0,0,1,0,0,0,1 @ F,0,0,1,0,0,0,1 @ F,0,0,1,0,0,0,1 | F,0,0,1,0,0,0,1 @ F,0,0,1,0,0,0,1 @ F,0,0,1,0,0,0,1 @ F,0,0,1,0,0,0,1 | F,0,0,1,0,0,0,1 @ F,0,0,1,0,0,0,1 @ F,0,0,1,0,0,0,1 @ F,0,0,1,0,0,0,1"
       unit="mm"
       method="auto"
       mode="F"
       radius="1"
       chamfer_steps="1"
       flexible="false"
       use_knot_distance="true"
       apply_no_radius="true"
       apply_with_radius="true"
       only_selected="true"
       hide_knots="false" />
  </defs>
  <g
     inkscape:groupmode="layer"
     id="layer3"
     inkscape:label="plate"
     style="display:inline"
     transform="translate(-2.1365203,-2.1555202)">
    <path
       id="rect1851-5"
       style="display:inline;fill:none;stroke:#000000;stroke-width:0.100806"
       d="M 106.725,6.3444028 V 6.1120026 5.8796023 5.6472021 5.4148018 5.1824016 4.9500014 4.7176011 4.4852009 l 0.0463,-0.4593023 0.1328,-0.4277957 0.21012,-0.3871246 0.27829,-0.337289 0.33729,-0.278289 0.38712,-0.2101243 0.4278,-0.1327953 0.4593,-0.046302 0.4593,0.046302 0.4278,0.1327952 0.38712,0.2101243 0.33729,0.2782889 0.27829,0.3372891 0.21012,0.3871247 0.1328,0.4277958 0.0463,0.4593025 v 0.2324002 0.2324003 0.2324002 0.2324002 0.2324003 0.2324002 0.2324003 0.2324002 l 0.0203,0.2015349 0.0583,0.1877102 0.0922,0.1698644 0.12211,0.1479973 0.14799,0.1221089 0.16987,0.092199 0.18771,0.058269 0.20153,0.020316 h 12.15537 12.15537 12.15537 12.15537 12.15537 12.15537 12.15537 12.15537 l 0.20153,-0.020316 0.18771,-0.058269 0.16987,-0.092199 0.14799,-0.1221089 0.12211,-0.1479973 0.0922,-0.1698644 0.0583,-0.1877102 0.0203,-0.2015349 V 6.1120026 5.8796023 5.6472021 5.4148018 5.1824016 4.9500014 4.7176011 4.4852009 l 0.0463,-0.4593023 0.1328,-0.4277957 0.21012,-0.3871246 0.27829,-0.337289 0.33729,-0.278289 0.38712,-0.2101243 0.4278,-0.1327953 0.4593,-0.046302 0.4593,0.046302 0.4278,0.1327951 0.38712,0.2101243 0.33729,0.278289 0.27829,0.337289 0.21012,0.3871247 0.1328,0.4277958 0.0463,0.4593025 V 4.7176013 4.9500016 5.1824018 5.414802 5.6472023 5.8796025 6.1120028 6.344403 l 0.0203,0.2015349 0.0583,0.1877102 0.0922,0.1698644 0.12211,0.1479973 0.14799,0.1221089 0.16987,0.092199 0.18771,0.058269 0.20153,0.020316 h 9.80525 9.80524 9.80525 9.80525 9.80524 9.80525 9.80524 9.80525 l 0.20153,-0.020316 0.18771,-0.058269 0.16987,-0.092199 0.148,-0.1221089 0.1221,-0.1479973 0.0922,-0.1698644 0.0583,-0.1877102 0.0203,-0.2015349 V 6.1120026 5.8796024 5.6472022 5.414802 5.1824018 4.9500016 4.7176014 4.4852012 l 0.0463,-0.4593023 0.1328,-0.4277957 0.21012,-0.3871246 0.27829,-0.3372891 0.33729,-0.2782889 0.38712,-0.2101243 0.4278,-0.1327953 0.4593,-0.046302 0.4593,0.046302 0.4278,0.1327951 0.38712,0.2101243 0.33729,0.278289 0.27829,0.337289 0.21012,0.3871247 0.1328,0.4277958 0.0463,0.4593025 v 0.2324 0.2324002 0.2324002 0.2324002 0.2324002 0.2324002 0.2324002 0.2324002 l 0.0203,0.2015349 0.0583,0.1877102 0.0922,0.1698644 0.1221,0.1479973 0.148,0.1221089 0.16987,0.092199 0.18771,0.058269 0.20153,0.020316 h 1.55019 1.5502 1.55019 1.55019 1.55019 1.5502 1.55019 1.55019 l 0.20153,0.020316 0.18771,0.058269 0.16987,0.092199 0.148,0.1221089 0.1221,0.1479973 0.0922,0.1698644 0.0583,0.1877102 0.0203,0.2015349 v 4.3758838 4.375883 4.375884 4.375884 4.375884 4.375883 4.375884 4.375884 l 0.0203,0.201535 0.0583,0.18771 0.0922,0.169865 0.12211,0.147997 0.14799,0.122109 0.16987,0.0922 0.18771,0.05827 0.20153,0.02032 h 0.2324 0.2324 0.2324 0.2324 0.2324 0.2324 0.2324 0.2324 l 0.4593,0.0463 0.4278,0.132795 0.38712,0.210124 0.33729,0.278288 0.27829,0.337289 0.21012,0.387125 0.1328,0.427795 0.0463,0.459303 -0.0463,0.459302 -0.1328,0.427796 -0.21012,0.387125 -0.27829,0.337289 -0.33729,0.278289 -0.38712,0.210124 -0.4278,0.132795 -0.4593,0.0463 h -0.2324 -0.2324 -0.2324 -0.2324 -0.2324 -0.2324 -0.2324 -0.2324 l -0.20153,0.02032 -0.18771,0.05827 -0.16987,0.0922 -0.14799,0.122109 -0.12211,0.147997 -0.0922,0.169865 -0.0583,0.18771 -0.0203,0.201535 v 4.37601 4.376011 4.37601 4.37601 4.376011 4.37601 4.376011 4.37601 l -0.0203,0.201535 -0.0583,0.18771 -0.0922,0.169865 -0.1221,0.147997 -0.148,0.122109 -0.16987,0.0922 -0.18771,0.05827 -0.20153,0.02032 h -1.55019 -1.55019 -1.5502 -1.55019 -1.55019 -1.55019 -1.5502 -1.55019 l -0.20153,0.02032 -0.18771,0.05827 -0.16987,0.0922 -0.14799,0.122109 -0.12211,0.147997 -0.0922,0.169865 -0.0583,0.18771 -0.0203,0.201535 v 0.2324 0.232401 0.2324 0.2324 0.2324 0.2324 0.232401 0.2324 l -0.0463,0.459302 -0.1328,0.427796 -0.21012,0.387125 -0.27829,0.337289 -0.33729,0.278289 -0.38712,0.210124 -0.4278,0.132795 -0.4593,0.0463 -0.4593,-0.0463 -0.4278,-0.132795 -0.38712,-0.210124 -0.33729,-0.278289 -0.27829,-0.337289 -0.21012,-0.387125 -0.1328,-0.427796 -0.0463,-0.459302 v -0.2324 -0.232401 -0.2324 -0.2324 -0.2324 -0.2324 -0.232401 -0.2324 l -0.0203,-0.201535 -0.0583,-0.18771 -0.0922,-0.169865 -0.1221,-0.147997 -0.148,-0.122109 -0.16987,-0.0922 -0.18771,-0.05827 -0.20153,-0.02032 h -9.80525 -9.80524 -9.80525 -9.80524 -9.80525 -9.80525 -9.80524 -9.80525 l -0.20153,0.02032 -0.18771,0.05827 -0.16987,0.0922 -0.14799,0.122109 -0.12211,0.147997 -0.0922,0.169865 -0.0583,0.18771 -0.0203,0.201535 v 0.2324 0.232401 0.2324 0.2324 0.2324 0.2324 0.232401 0.2324 l -0.0463,0.459302 -0.1328,0.427796 -0.21012,0.387125 -0.27829,0.337289 -0.33729,0.278289 -0.38712,0.210124 -0.4278,0.132795 -0.4593,0.0463 -0.4593,-0.0463 -0.4278,-0.132795 -0.38712,-0.210124 -0.33729,-0.278289 -0.27829,-0.337289 -0.21012,-0.387125 -0.1328,-0.427796 -0.0463,-0.459302 v -0.2324 -0.232401 -0.2324 -0.2324 -0.2324 -0.2324 -0.232401 -0.2324 l -0.0203,-0.201535 -0.0583,-0.18771 -0.0922,-0.169865 -0.1221,-0.147997 -0.148,-0.122109 -0.16987,-0.0922 -0.18771,-0.05827 -0.20153,-0.02032 H 197.37064 185.21527 173.0599 160.90453 148.74916 136.59379 124.43842 112.28305 l -0.20153,0.02032 -0.18771,0.05827 -0.16987,0.0922 -0.14799,0.122109 -0.12211,0.147997 -0.0922,0.169865 -0.0583,0.18771 -0.0203,0.201535 v 0.2324 0.232401 0.2324 0.2324 0.2324 0.2324 0.232401 0.2324 l -0.0463,0.459302 -0.1328,0.427796 -0.21012,0.387125 -0.27829,0.337289 -0.33729,0.278289 -0.38712,0.210124 -0.4278,0.132795 -0.4593,0.0463 -0.4593,-0.0463 -0.4278,-0.132795 -0.38712,-0.210124 -0.33729,-0.278289 -0.27829,-0.337289 -0.21012,-0.387125 -0.1328,-0.427796 -0.0463,-0.459302 v -0.2324 -0.232401 -0.2324 -0.2324 -0.2324 -0.2324 -0.232401 -0.2324 l -0.0203,-0.201535 -0.0583,-0.18771 -0.0922,-0.169865 -0.1221,-0.147997 -0.148,-0.122109 -0.16987,-0.0922 -0.18771,-0.05827 -0.20153,-0.02032 h -9.805245 -9.805244 -9.805245 -9.805244 -9.805245 -9.805245 -9.805244 -9.805245 l -0.201535,0.02032 -0.18771,0.05827 -0.169865,0.0922 -0.147997,0.122109 -0.122109,0.147997 -0.0922,0.169865 -0.05827,0.18771 -0.02032,0.201535 v 0.2324 0.232401 0.2324 0.2324 0.2324 0.2324 0.232401 0.2324 l -0.0463,0.459302 -0.132795,0.427796 -0.210124,0.387125 -0.278289,0.337289 -0.337289,0.278289 -0.387125,0.210124 -0.427796,0.132795 -0.459302,0.0463 -0.459303,-0.0463 -0.427795,-0.132795 -0.387125,-0.210124 -0.337289,-0.278289 -0.278288,-0.337289 -0.210124,-0.387125 -0.132795,-0.427796 -0.0463,-0.459302 v -0.2324 -0.232401 -0.2324 -0.2324 -0.2324 -0.2324 -0.232401 -0.2324 l -0.02032,-0.201535 -0.05827,-0.18771 -0.0922,-0.169865 -0.122109,-0.147997 -0.147997,-0.122109 -0.169865,-0.0922 -0.18771,-0.05827 -0.201535,-0.02032 h -1.54995 -1.549949 -1.54995 -1.549949 -1.54995 -1.54995 H 9.8753348 8.3253852 L 8.1238503,85.897292 7.9361401,85.839022 7.7662757,85.746822 7.6182784,85.624713 7.4961695,85.476716 7.4039705,85.306851 7.3457015,85.119141 7.3253855,84.917606 V 80.541754 76.165909 71.790065 67.41422 63.038375 58.662531 54.286686 49.910841 L 7.3050695,49.709306 7.2468005,49.521596 7.1546015,49.351731 7.0324926,49.203734 6.8844953,49.081625 6.7146309,48.989425 6.5269207,48.931155 6.3253858,48.910835 H 6.0930029 5.8606027 5.6282025 5.3958022 5.1634019 4.9310017 4.6986015 4.4662012 L 4.0068988,48.864535 3.579103,48.731744 3.1919784,48.52162 2.8546893,48.243331 2.5764004,47.906042 2.3662761,47.518917 2.2334808,47.091121 2.1871788,46.631819 2.2334808,46.172516 2.3662761,45.744721 2.5764004,45.357596 2.8546893,45.020307 3.1919784,44.742019 3.579103,44.531895 4.0068988,44.3991 4.4662012,44.3528 h 0.2324003 0.2324002 0.2324002 0.2324003 0.2324003 0.2324002 0.2324002 0.2324003 l 0.2015349,-0.02032 0.1877102,-0.05827 0.1698644,-0.0922 0.1479973,-0.122109 0.1221089,-0.147997 0.092199,-0.169865 0.058269,-0.18771 0.020316,-0.201535 V 38.976749 34.600699 30.22465 25.8486 21.472551 17.096502 12.720452 8.3444028 L 7.3457189,8.1428679 7.4039879,7.9551577 7.4961869,7.7852933 7.6182958,7.637296 7.7662931,7.5151871 7.9361575,7.4229881 8.1238677,7.3647191 8.3254026,7.3444031 h 1.5499496 1.5499488 1.54995 1.54995 1.549949 1.54995 1.549949 1.54995 l 0.201535,-0.020316 0.18771,-0.058269 0.169865,-0.092199 0.147997,-0.1221089 0.122109,-0.1479973 0.0922,-0.1698644 0.05827,-0.1877102 L 21.725,6.3444028 V 6.1120026 5.8796023 5.6472021 5.4148018 5.1824016 4.9500014 4.7176011 4.4852009 l 0.0463,-0.4593023 0.132795,-0.4277957 0.210124,-0.3871246 0.278289,-0.337289 0.337288,-0.278289 0.387125,-0.2101243 0.427796,-0.1327953 0.459302,-0.046302 0.459302,0.046302 0.427796,0.1327952 0.387125,0.2101243 0.337289,0.2782889 0.278289,0.3372891 0.210124,0.3871247 0.132796,0.4277958 0.0463,0.4593025 v 0.2324002 0.2324003 0.2324002 0.2324002 l -1e-6,0.2324003 v 0.2324002 0.2324003 0.2324002 l 0.02032,0.2015349 0.05827,0.1877103 0.0922,0.1698644 0.122109,0.1479973 0.147997,0.1221089 0.169865,0.092199 0.18771,0.058268 0.201535,0.020316 h 9.805245 9.805245 9.805244 9.805245 9.805245 9.805245 9.805244 9.805242 l 0.20153,-0.020316 0.18771,-0.058269 0.16987,-0.092199 0.14799,-0.1221089 0.12211,-0.1479973 0.0922,-0.1698644 0.0583,-0.1877102 0.0203,-0.2015349 z m 192.12984,-1.8592016 -0.0213,0.2115748 -0.0612,0.1970615 -0.0968,0.1783266 -0.12819,0.1553701 -0.15537,0.128192 -0.17832,0.096792 -0.19706,0.061171 -0.21158,0.021329 -0.21158,-0.021329 -0.19706,-0.061171 -0.17832,-0.096792 -0.15537,-0.128192 -0.1282,-0.1553702 -0.0968,-0.1783266 -0.0612,-0.1970616 -0.0213,-0.2115749 0.0213,-0.211575 0.0612,-0.1970615 0.0968,-0.1783267 0.1282,-0.1553702 0.15537,-0.1281921 0.17832,-0.096792 0.19706,-0.061171 0.21158,-0.021328 0.21158,0.021329 0.19706,0.061171 0.17832,0.096792 0.15537,0.1281921 0.12819,0.1553701 0.0968,0.1783265 0.0612,0.1970615 z m -85.00001,-3e-7 -0.0213,0.2115748 -0.0612,0.1970615 -0.0968,0.1783266 -0.12819,0.1553701 -0.15537,0.128192 -0.17832,0.096792 -0.19706,0.061171 -0.21158,0.021329 -0.21158,-0.021329 -0.19706,-0.061171 -0.17832,-0.096792 -0.15538,-0.128192 -0.12819,-0.1553702 -0.0968,-0.1783266 -0.0612,-0.1970616 -0.0213,-0.2115749 0.0213,-0.211575 0.0612,-0.1970615 0.0968,-0.1783267 0.1282,-0.1553702 0.15537,-0.1281921 0.17832,-0.096792 0.19706,-0.061171 0.21158,-0.021328 0.21158,0.021329 0.19706,0.061171 0.17832,0.096792 0.15537,0.1281921 0.12819,0.1553701 0.0968,0.1783265 0.0612,0.1970615 z m -103.801,0 -0.0213,0.2115748 -0.0612,0.1970615 -0.0968,0.1783266 -0.12819,0.1553701 -0.15537,0.128192 -0.17832,0.096792 -0.19706,0.061171 -0.21158,0.021329 -0.21158,-0.021329 -0.19706,-0.061171 -0.17832,-0.096792 -0.15538,-0.128192 -0.12819,-0.1553702 -0.0968,-0.1783266 -0.0612,-0.1970616 -0.0213,-0.2115749 0.0213,-0.211575 0.0612,-0.1970615 0.0968,-0.1783267 0.1282,-0.1553702 0.15537,-0.1281921 0.17832,-0.096792 0.19706,-0.061171 0.21158,-0.021328 0.21158,0.021329 0.19706,0.061171 0.17832,0.096792 0.15537,0.1281921 0.12819,0.1553701 0.0968,0.1783265 0.0612,0.1970615 z m 188.80101,84.2916001 -0.0213,-0.211575 -0.0612,-0.197061 -0.0968,-0.178327 -0.12819,-0.15537 -0.15537,-0.128192 -0.17832,-0.09679 -0.19706,-0.06117 -0.21158,-0.02133 -0.21158,0.02133 -0.19706,0.06117 -0.17832,0.09679 -0.15537,0.128192 -0.1282,0.155371 -0.0968,0.178326 -0.0612,0.197062 -0.0213,0.211575 0.0213,0.211575 0.0612,0.197061 0.0968,0.178327 0.1282,0.15537 0.15537,0.128192 0.17832,0.09679 0.19706,0.06117 0.21158,0.02133 0.21158,-0.02133 0.19706,-0.06117 0.17832,-0.09679 0.15537,-0.128192 0.12819,-0.15537 0.0968,-0.178326 0.0612,-0.197061 0.0213,-0.211575 z m -85.00001,0 -0.0213,-0.211575 -0.0612,-0.197061 -0.0968,-0.178327 -0.12819,-0.15537 -0.15537,-0.128192 -0.17832,-0.09679 -0.19706,-0.06117 -0.21158,-0.02133 -0.21158,0.02133 -0.19706,0.06117 -0.17832,0.09679 -0.15538,0.128192 -0.12819,0.15537 -0.0968,0.178327 -0.0612,0.197061 -0.0213,0.211575 0.0213,0.211575 0.0612,0.197062 0.0968,0.178326 0.1282,0.155371 0.15537,0.128192 0.17832,0.09679 0.19706,0.06117 0.21158,0.02133 0.21158,-0.02133 0.19706,-0.06117 0.17832,-0.09679 0.15537,-0.128192 0.12819,-0.15537 0.0968,-0.178327 0.0612,-0.197061 z m -103.801,0 -0.0213,-0.211575 -0.0612,-0.197061 -0.0968,-0.178327 -0.12819,-0.15537 -0.15537,-0.128192 -0.17832,-0.09679 -0.19706,-0.06117 -0.21158,-0.02133 -0.21158,0.02133 -0.19706,0.06117 -0.17832,0.09679 -0.15537,0.128192 -0.1282,0.15537 -0.0968,0.178327 -0.0612,0.197061 -0.0213,0.211575 0.0213,0.211575 0.0612,0.197062 0.0968,0.178326 0.1282,0.155371 0.15537,0.128192 0.17832,0.09679 0.19706,0.06117 0.21158,0.02133 0.21158,-0.02133 0.19706,-0.06117 0.17832,-0.09679 0.15537,-0.128192 0.12819,-0.15537 0.0968,-0.178327 0.0612,-0.197061 z m 207.29096,-41.09649 -0.21158,-0.02133 -0.19706,-0.06117 -0.17832,-0.09679 -0.15537,-0.128192 -0.1282,-0.15537 -0.0968,-0.178327 -0.0612,-0.197061 -0.0213,-0.211575 0.0213,-0.211575 0.0612,-0.197061 0.0968,-0.178327 0.1282,-0.15537 0.15537,-0.128192 0.17832,-0.09679 0.19706,-0.06117 0.21158,-0.02133 0.21158,0.02133 0.19706,0.06117 0.17832,0.09679 0.15538,0.128192 0.12819,0.15537 0.0968,0.178327 0.0612,0.197061 0.0213,0.211575 -0.0213,0.211575 -0.0612,0.197061 -0.0968,0.178327 -0.12819,0.15537 -0.15538,0.128192 -0.17832,0.09679 -0.19706,0.06117 z M 4.4662012,47.681611 4.677776,47.660281 4.8748374,47.599111 5.0531639,47.502321 5.208534,47.374129 5.336726,47.218759 5.433518,47.040432 5.494689,46.843371 5.516018,46.631796 5.49469,46.420221 5.433519,46.22316 5.336727,46.044833 5.2085349,45.889463 5.0531648,45.761271 l -0.1783267,-0.09679 -0.1970615,-0.06117 -0.2115748,-0.02133 -0.2115751,0.02133 -0.1970617,0.06117 -0.1783267,0.09679 -0.1553701,0.128192 -0.1281921,0.15537 -0.096792,0.178327 -0.061171,0.197061 -0.021329,0.211575 0.021329,0.211575 0.061171,0.197061 0.096793,0.178327 0.1281922,0.15537 0.1553702,0.128192 0.1783267,0.09679 0.1970615,0.06117 0.2115748,0.02133 z m 20.5876368,41.09519 -0.02133,-0.211575 -0.06117,-0.197061 -0.09679,-0.178327 -0.128192,-0.15537 -0.15537,-0.128192 -0.178327,-0.09679 -0.197061,-0.06117 -0.211575,-0.02133 -0.211575,0.02133 -0.197061,0.06117 -0.178327,0.09679 -0.15537,0.128192 -0.128192,0.15537 -0.09679,0.178327 -0.06117,0.197061 -0.02133,0.211575 0.02133,0.211575 0.06117,0.197062 0.09679,0.178326 0.128192,0.155371 0.15537,0.128192 0.178327,0.09679 0.197061,0.06117 0.211575,0.02133 0.211575,-0.02133 0.197061,-0.06117 0.178327,-0.09679 0.15537,-0.128192 0.128192,-0.15537 0.09679,-0.178327 0.06117,-0.197061 z m 0,-84.2916001 -0.02133,0.2115748 -0.06117,0.1970615 -0.09679,0.1783266 -0.128192,0.1553701 -0.15537,0.128192 -0.178327,0.096792 -0.197061,0.061171 -0.211575,0.021329 -0.211575,-0.021328 -0.197061,-0.061171 -0.178327,-0.096792 -0.15537,-0.1281921 -0.128192,-0.1553701 -0.09679,-0.1783267 -0.06117,-0.1970616 -0.02133,-0.2115749 0.02133,-0.211575 0.06117,-0.1970615 0.09679,-0.1783267 0.128192,-0.1553702 0.15537,-0.1281921 0.178327,-0.096792 0.197061,-0.061171 0.211575,-0.021328 0.211575,0.021329 0.197061,0.061171 0.178327,0.096793 0.15537,0.1281921 0.128192,0.1553701 0.09679,0.1783266 0.06117,0.1970615 0.02133,0.2115748 z M 127.71406,68.19279 h 14 v 14 h -14 z m -69.056002,-57.15 h 14 v 14 h -14 z m -42.862,0 h 14 v 14 h -14 z m 23.812,0 h 14 v 14 h -14 z m 38.1,0 h 14 v 14 h -14 z m 19.05,0 h 14.000002 v 14 H 96.758058 Z m 19.050002,0 h 14 v 14 h -14 z m 19.05,0 h 14 v 14 h -14 z m 19.05,0 h 14 v 14 h -14 z m 19.05,0 h 14 v 14 h -14 z m 19.05,0 h 14 v 14 h -14 z m 19.05,0 h 14 v 14 h -14 z m 19.05,0 h 14 v 14 h -14 z m 19.05,0 h 14 v 14 h -14 z m 23.813,0 h 14 v 14 h -14 z m 23.812,0 h 14 v 14 h -14 z m -278.606002,19.05 h 14 v 14 h -14 z m 26.194,0 h 14 v 14 h -14 z m 38.1,0 h 14 v 14 h -14 z m 19.050002,0 h 14 v 14 h -14 z m 19.05,0 h 14 v 14 h -14 z m 19.05,0 h 14 v 14 h -14 z m 19.05,0 h 14 v 14 h -14 z m 19.05,0 h 14 v 14 h -14 z m 19.05,0 h 14 v 14 h -14 z m 19.05,0 h 14 v 14 h -14 z m 19.05,0 h 14 v 14 h -14 z m 30.956,0 h 14 v 14 h -14 z m 30.956,0 h 14 v 14 h -14 z m -273.844002,19.05 h 14 v 14 h -14 z m 30.957,0 h 14 v 14 h -14 z m 19.05,0 h 14 v 14 h -14 z m 19.05,0 h 14.000002 v 14 H 91.996058 Z m 19.050002,0 h 14 v 14 h -14 z m 19.05,0 h 14 v 14 h -14 z m 19.05,0 h 14 v 14 h -14 z m 19.05,0 h 14 v 14 h -14 z m 19.05,0 h 14 v 14 h -14 z m 19.05,0 h 14 v 14 h -14 z m 19.05,0 h 14 v 14 h -14 z m 26.193,0 h 14 v 14 h -14 z m 26.194,0 h 14 v 14 h -14 z m -264.319002,19.05 h 14 v 14 h -14 z m 23.813,0 h 14 v 14 h -14 z m 23.812,0 h 14 v 14 h -14 z m 33.338,0 h 14.000002 v 14 H 94.377058 Z m 71.437002,0 h 14 v 14 h -14 z m 38.1,0 h 14 v 14 h -14 z m 23.813,0 h 14 v 14 h -14 z m 30.956,0 h 14 v 14 h -14 z m 19.05,0 h 14 v 14 h -14 z m 19.05,0 h 14 v 14 h -14 z m -233.362002,-38.1 h 14 v 14 h -14 z m 224.844002,13 h -7 v -15 h 7 z m -23.876,0 h -7 v -15 h 7 z m -249.888002,7.05 h 7 v 15 h -7 z m 23.876,0 h 7 v 15 h -7 z m 78.438002,31.05 h -7 v -15 h 7 z m -23.876002,0 h -7 v -15 h 7 z m 95.313002,0 h -7 v -15 h 7 z m -23.876,0 h -7 v -15 h 7 z" />
  </g>
</svg>
