%TF.GenerationSoftware,KiCad,Pcbnew,(6.0.5)*%
%TF.CreationDate,2023-01-25T17:17:27+09:00*%
%TF.ProjectId,chasma,63686173-6d61-42e6-9b69-6361645f7063,rev?*%
%TF.SameCoordinates,Original*%
%TF.FileFunction,Soldermask,Top*%
%TF.FilePolarity,Negative*%
%FSLAX46Y46*%
G04 Gerber Fmt 4.6, Leading zero omitted, Abs format (unit mm)*
G04 Created by KiCad (PCBNEW (6.0.5)) date 2023-01-25 17:17:27*
%MOMM*%
%LPD*%
G01*
G04 APERTURE LIST*
%ADD10C,1.750000*%
%ADD11C,3.000000*%
%ADD12C,3.987800*%
%ADD13C,3.048000*%
%ADD14C,0.650000*%
%ADD15O,1.000000X2.100000*%
%ADD16O,1.000000X1.600000*%
G04 APERTURE END LIST*
D10*
%TO.C,SW06_02*%
X196120000Y-161500000D03*
X206280000Y-161500000D03*
D11*
X197390000Y-158960000D03*
X203740000Y-156420000D03*
D12*
X201200000Y-161500000D03*
%TD*%
D10*
%TO.C,SW09_00*%
X238995000Y-123375000D03*
X249155000Y-123375000D03*
D12*
X244075000Y-123375000D03*
D11*
X240265000Y-120835000D03*
X246615000Y-118295000D03*
%TD*%
D12*
%TO.C,SW01_01*%
X96425000Y-142425000D03*
D10*
X101505000Y-142425000D03*
X91345000Y-142425000D03*
D11*
X98965000Y-137345000D03*
X92615000Y-139885000D03*
%TD*%
%TO.C,SW05_02*%
X184690000Y-156395000D03*
D12*
X182150000Y-161475000D03*
D11*
X178340000Y-158935000D03*
D10*
X177070000Y-161475000D03*
X187230000Y-161475000D03*
%TD*%
D11*
%TO.C,SW01_02*%
X108490000Y-156395000D03*
D10*
X100870000Y-161475000D03*
D12*
X105950000Y-161475000D03*
D10*
X111030000Y-161475000D03*
D11*
X102140000Y-158935000D03*
%TD*%
%TO.C,SW10_02*%
X279940000Y-156395000D03*
X273590000Y-158935000D03*
D10*
X282480000Y-161475000D03*
X272320000Y-161475000D03*
D12*
X277400000Y-161475000D03*
%TD*%
%TO.C,SW07_03*%
X205937000Y-172245000D03*
D10*
X222955000Y-180500000D03*
D11*
X220415000Y-175420000D03*
X214065000Y-177960000D03*
D12*
X229813000Y-172245000D03*
X217875000Y-180500000D03*
D10*
X212795000Y-180500000D03*
D13*
X205937000Y-187485000D03*
X229813000Y-187485000D03*
%TD*%
D12*
%TO.C,SW00_02*%
X63012000Y-169780550D03*
X74950000Y-161525550D03*
D13*
X86888000Y-154540550D03*
D12*
X86888000Y-169780550D03*
D10*
X80030000Y-161525550D03*
X69870000Y-161525550D03*
D11*
X77490000Y-156445550D03*
X71140000Y-158985550D03*
D13*
X63012000Y-154540550D03*
%TD*%
D10*
%TO.C,SW13_00*%
X319970000Y-123375000D03*
D12*
X325050000Y-123375000D03*
D11*
X327590000Y-118295000D03*
X321240000Y-120835000D03*
D10*
X330130000Y-123375000D03*
%TD*%
D11*
%TO.C,SW12_03*%
X313290000Y-175445000D03*
X306940000Y-177985000D03*
D12*
X310750000Y-180525000D03*
D10*
X305670000Y-180525000D03*
X315830000Y-180525000D03*
%TD*%
D11*
%TO.C,SW07_02*%
X216440000Y-158935000D03*
D10*
X225330000Y-161475000D03*
X215170000Y-161475000D03*
D12*
X220250000Y-161475000D03*
D11*
X222790000Y-156395000D03*
%TD*%
%TO.C,SW13_02*%
X325990000Y-158935000D03*
D10*
X334880000Y-161475000D03*
D12*
X329800000Y-161475000D03*
D11*
X332340000Y-156395000D03*
D10*
X324720000Y-161475000D03*
%TD*%
D12*
%TO.C,SW10_01*%
X267875000Y-142425000D03*
D11*
X270415000Y-137345000D03*
D10*
X262795000Y-142425000D03*
D11*
X264065000Y-139885000D03*
D10*
X272955000Y-142425000D03*
%TD*%
D11*
%TO.C,SW04_02*%
X159290000Y-158935000D03*
D12*
X163100000Y-161475000D03*
D10*
X168180000Y-161475000D03*
D11*
X165640000Y-156395000D03*
D10*
X158020000Y-161475000D03*
%TD*%
D12*
%TO.C,SW04_01*%
X153600000Y-142425000D03*
D10*
X158680000Y-142425000D03*
D11*
X156140000Y-137345000D03*
D10*
X148520000Y-142425000D03*
D11*
X149790000Y-139885000D03*
%TD*%
%TO.C,SW11_02*%
X306165000Y-156370000D03*
D12*
X303625000Y-161450000D03*
D10*
X308705000Y-161450000D03*
D11*
X299815000Y-158910000D03*
D10*
X298545000Y-161450000D03*
%TD*%
D11*
%TO.C,SW03_01*%
X137065000Y-137320000D03*
D10*
X129445000Y-142400000D03*
D11*
X130715000Y-139860000D03*
D12*
X134525000Y-142400000D03*
D10*
X139605000Y-142400000D03*
%TD*%
D11*
%TO.C,SW07_00*%
X208515000Y-118295000D03*
X202165000Y-120835000D03*
D12*
X205975000Y-123375000D03*
D10*
X211055000Y-123375000D03*
X200895000Y-123375000D03*
%TD*%
D11*
%TO.C,SW03_02*%
X140240000Y-158935000D03*
D12*
X144050000Y-161475000D03*
D10*
X149130000Y-161475000D03*
X138970000Y-161475000D03*
D11*
X146590000Y-156395000D03*
%TD*%
%TO.C,SW06_01*%
X187865000Y-139885000D03*
D12*
X191675000Y-142425000D03*
D10*
X196755000Y-142425000D03*
D11*
X194215000Y-137345000D03*
D10*
X186595000Y-142425000D03*
%TD*%
%TO.C,SW03_00*%
X134855000Y-123375000D03*
D12*
X129775000Y-123375000D03*
D11*
X125965000Y-120835000D03*
D10*
X124695000Y-123375000D03*
D11*
X132315000Y-118295000D03*
%TD*%
D12*
%TO.C,SW12_01*%
X329813000Y-134144450D03*
D11*
X314065000Y-139859450D03*
D10*
X322955000Y-142399450D03*
D13*
X329813000Y-149384450D03*
D11*
X320415000Y-137319450D03*
D12*
X305937000Y-134144450D03*
D13*
X305937000Y-149384450D03*
D10*
X312795000Y-142399450D03*
D12*
X317875000Y-142399450D03*
%TD*%
D10*
%TO.C,SW13_03*%
X334880000Y-180525000D03*
X324720000Y-180525000D03*
D11*
X325990000Y-177985000D03*
X332340000Y-175445000D03*
D12*
X329800000Y-180525000D03*
%TD*%
D11*
%TO.C,SW07_01*%
X206940000Y-139885000D03*
X213290000Y-137345000D03*
D12*
X210750000Y-142425000D03*
D10*
X205670000Y-142425000D03*
X215830000Y-142425000D03*
%TD*%
%TO.C,SW09_02*%
X263430000Y-161475000D03*
D12*
X258350000Y-161475000D03*
D11*
X254540000Y-158935000D03*
X260890000Y-156395000D03*
D10*
X253270000Y-161475000D03*
%TD*%
D12*
%TO.C,SW01_00*%
X91675000Y-123375000D03*
D11*
X87865000Y-120835000D03*
D10*
X86595000Y-123375000D03*
D11*
X94215000Y-118295000D03*
D10*
X96755000Y-123375000D03*
%TD*%
D12*
%TO.C,SW02_03*%
X113100000Y-180550000D03*
D11*
X109290000Y-178010000D03*
D10*
X118180000Y-180550000D03*
D11*
X115640000Y-175470000D03*
D10*
X108020000Y-180550000D03*
%TD*%
%TO.C,SW05_01*%
X167545000Y-142425000D03*
X177705000Y-142425000D03*
D11*
X175165000Y-137345000D03*
X168815000Y-139885000D03*
D12*
X172625000Y-142425000D03*
%TD*%
D11*
%TO.C,SW02_00*%
X106915000Y-120835000D03*
D10*
X105645000Y-123375000D03*
D11*
X113265000Y-118295000D03*
D12*
X110725000Y-123375000D03*
D10*
X115805000Y-123375000D03*
%TD*%
D12*
%TO.C,SW12_00*%
X301225000Y-123325000D03*
D11*
X303765000Y-118245000D03*
D10*
X306305000Y-123325000D03*
X296145000Y-123325000D03*
D11*
X297415000Y-120785000D03*
%TD*%
%TO.C,SW10_03*%
X282340000Y-175445000D03*
D10*
X274720000Y-180525000D03*
D11*
X275990000Y-177985000D03*
D12*
X279800000Y-180525000D03*
D10*
X284880000Y-180525000D03*
%TD*%
%TO.C,SW02_01*%
X110395000Y-142400000D03*
X120555000Y-142400000D03*
D11*
X118015000Y-137320000D03*
D12*
X115475000Y-142400000D03*
D11*
X111665000Y-139860000D03*
%TD*%
D10*
%TO.C,SW04_00*%
X153905000Y-123375000D03*
D11*
X151365000Y-118295000D03*
D10*
X143745000Y-123375000D03*
D12*
X148825000Y-123375000D03*
D11*
X145015000Y-120835000D03*
%TD*%
D12*
%TO.C,SW02_02*%
X125000000Y-161425000D03*
D11*
X121190000Y-158885000D03*
D10*
X119920000Y-161425000D03*
X130080000Y-161425000D03*
D11*
X127540000Y-156345000D03*
%TD*%
D12*
%TO.C,SW08_02*%
X239300000Y-161475000D03*
D11*
X235490000Y-158935000D03*
D10*
X234220000Y-161475000D03*
D11*
X241840000Y-156395000D03*
D10*
X244380000Y-161475000D03*
%TD*%
D11*
%TO.C,SW11_00*%
X278365000Y-120835000D03*
D12*
X282175000Y-123375000D03*
D11*
X284715000Y-118295000D03*
D10*
X277095000Y-123375000D03*
X287255000Y-123375000D03*
%TD*%
%TO.C,SW09_01*%
X243745000Y-142425000D03*
D11*
X251365000Y-137345000D03*
X245015000Y-139885000D03*
D12*
X248825000Y-142425000D03*
D10*
X253905000Y-142425000D03*
%TD*%
D11*
%TO.C,SW05_03*%
X176015000Y-177960000D03*
X182365000Y-175420000D03*
D10*
X184905000Y-180500000D03*
D12*
X179825000Y-180500000D03*
D10*
X174745000Y-180500000D03*
%TD*%
%TO.C,SW10_00*%
X258020000Y-123375000D03*
D11*
X265640000Y-118295000D03*
X259290000Y-120835000D03*
D12*
X263100000Y-123375000D03*
D10*
X268180000Y-123375000D03*
%TD*%
D11*
%TO.C,SW01_03*%
X85475000Y-178000000D03*
D10*
X94365000Y-180540000D03*
X84205000Y-180540000D03*
D12*
X89285000Y-180540000D03*
D11*
X91825000Y-175460000D03*
%TD*%
D12*
%TO.C,SW14_03*%
X348825000Y-180525000D03*
D10*
X343745000Y-180525000D03*
D11*
X345015000Y-177985000D03*
D10*
X353905000Y-180525000D03*
D11*
X351365000Y-175445000D03*
%TD*%
D12*
%TO.C,SW05_00*%
X167850000Y-123375000D03*
D11*
X170390000Y-118295000D03*
D10*
X172930000Y-123375000D03*
D11*
X164040000Y-120835000D03*
D10*
X162770000Y-123375000D03*
%TD*%
%TO.C,SW14_01*%
X353930000Y-142425000D03*
D12*
X348850000Y-142425000D03*
D10*
X343770000Y-142425000D03*
D11*
X345040000Y-139885000D03*
X351390000Y-137345000D03*
%TD*%
D10*
%TO.C,SW11_01*%
X281845000Y-142425000D03*
X292005000Y-142425000D03*
D11*
X289465000Y-137345000D03*
D12*
X286925000Y-142425000D03*
D11*
X283115000Y-139885000D03*
%TD*%
%TO.C,SW00_01*%
X66440000Y-139910000D03*
D10*
X75330000Y-142450000D03*
D12*
X70250000Y-142450000D03*
D10*
X65170000Y-142450000D03*
D11*
X72790000Y-137370000D03*
%TD*%
D10*
%TO.C,SW09_03*%
X250895000Y-180475000D03*
D12*
X255975000Y-180475000D03*
D11*
X252165000Y-177935000D03*
D10*
X261055000Y-180475000D03*
D11*
X258515000Y-175395000D03*
%TD*%
D10*
%TO.C,SW08_00*%
X219945000Y-123375000D03*
X230105000Y-123375000D03*
D11*
X227565000Y-118295000D03*
D12*
X225025000Y-123375000D03*
D11*
X221215000Y-120835000D03*
%TD*%
D12*
%TO.C,SW00_00*%
X67875000Y-123400000D03*
D10*
X72955000Y-123400000D03*
D11*
X70415000Y-118320000D03*
X64065000Y-120860000D03*
D10*
X62795000Y-123400000D03*
%TD*%
%TO.C,SW08_01*%
X224695000Y-142425000D03*
D11*
X232315000Y-137345000D03*
X225965000Y-139885000D03*
D10*
X234855000Y-142425000D03*
D12*
X229775000Y-142425000D03*
%TD*%
D11*
%TO.C,SW00_03*%
X61665000Y-177985000D03*
D12*
X65475000Y-180525000D03*
D10*
X60395000Y-180525000D03*
D11*
X68015000Y-175445000D03*
D10*
X70555000Y-180525000D03*
%TD*%
D12*
%TO.C,SW06_00*%
X186925000Y-123375000D03*
D10*
X192005000Y-123375000D03*
D11*
X189465000Y-118295000D03*
X183115000Y-120835000D03*
D10*
X181845000Y-123375000D03*
%TD*%
D12*
%TO.C,SW14_00*%
X348850000Y-123350000D03*
D11*
X345040000Y-120810000D03*
D10*
X343770000Y-123350000D03*
X353930000Y-123350000D03*
D11*
X351390000Y-118270000D03*
%TD*%
D10*
%TO.C,SW03_03*%
X141345000Y-180524450D03*
D13*
X134487000Y-187509450D03*
D12*
X158363000Y-172269450D03*
D10*
X151505000Y-180524450D03*
D11*
X148965000Y-175444450D03*
D12*
X146425000Y-180524450D03*
D11*
X142615000Y-177984450D03*
D13*
X158363000Y-187509450D03*
D12*
X134487000Y-172269450D03*
%TD*%
D14*
%TO.C,J0*%
X208790000Y-112075000D03*
X203010000Y-112075000D03*
D15*
X210220000Y-112605000D03*
D16*
X210220000Y-108425000D03*
X201580000Y-108425000D03*
D15*
X201580000Y-112605000D03*
%TD*%
M02*
