%TF.GenerationSoftware,KiCad,Pcbnew,(6.0.5)*%
%TF.CreationDate,2023-01-25T17:17:28+09:00*%
%TF.ProjectId,chasma,63686173-6d61-42e6-9b69-6361645f7063,rev?*%
%TF.SameCoordinates,Original*%
%TF.FileFunction,Soldermask,Bot*%
%TF.FilePolarity,Negative*%
%FSLAX46Y46*%
G04 Gerber Fmt 4.6, Leading zero omitted, Abs format (unit mm)*
G04 Created by KiCad (PCBNEW (6.0.5)) date 2023-01-25 17:17:28*
%MOMM*%
%LPD*%
G01*
G04 APERTURE LIST*
G04 Aperture macros list*
%AMRoundRect*
0 Rectangle with rounded corners*
0 $1 Rounding radius*
0 $2 $3 $4 $5 $6 $7 $8 $9 X,Y pos of 4 corners*
0 Add a 4 corners polygon primitive as box body*
4,1,4,$2,$3,$4,$5,$6,$7,$8,$9,$2,$3,0*
0 Add four circle primitives for the rounded corners*
1,1,$1+$1,$2,$3*
1,1,$1+$1,$4,$5*
1,1,$1+$1,$6,$7*
1,1,$1+$1,$8,$9*
0 Add four rect primitives between the rounded corners*
20,1,$1+$1,$2,$3,$4,$5,0*
20,1,$1+$1,$4,$5,$6,$7,0*
20,1,$1+$1,$6,$7,$8,$9,0*
20,1,$1+$1,$8,$9,$2,$3,0*%
G04 Aperture macros list end*
%ADD10C,1.750000*%
%ADD11C,3.000000*%
%ADD12C,3.987800*%
%ADD13R,2.550000X2.500000*%
%ADD14R,1.800000X0.820000*%
%ADD15C,3.048000*%
%ADD16R,1.800000X1.400000*%
%ADD17R,1.200000X0.900000*%
%ADD18C,0.650000*%
%ADD19R,0.600000X1.450000*%
%ADD20R,0.300000X1.450000*%
%ADD21O,1.000000X2.100000*%
%ADD22O,1.000000X1.600000*%
%ADD23RoundRect,0.250000X0.650000X-0.325000X0.650000X0.325000X-0.650000X0.325000X-0.650000X-0.325000X0*%
%ADD24RoundRect,0.250000X0.625000X-0.312500X0.625000X0.312500X-0.625000X0.312500X-0.625000X-0.312500X0*%
%ADD25RoundRect,0.250000X0.312500X0.625000X-0.312500X0.625000X-0.312500X-0.625000X0.312500X-0.625000X0*%
%ADD26RoundRect,0.250000X-0.325000X-0.650000X0.325000X-0.650000X0.325000X0.650000X-0.325000X0.650000X0*%
%ADD27R,1.400000X1.200000*%
%ADD28R,1.500000X0.550000*%
%ADD29R,0.550000X1.500000*%
%ADD30R,1.000000X0.750000*%
%ADD31RoundRect,0.250000X-0.312500X-0.625000X0.312500X-0.625000X0.312500X0.625000X-0.312500X0.625000X0*%
%ADD32RoundRect,0.250000X0.325000X0.650000X-0.325000X0.650000X-0.325000X-0.650000X0.325000X-0.650000X0*%
G04 APERTURE END LIST*
D10*
%TO.C,SW06_02*%
X196120000Y-161500000D03*
X206280000Y-161500000D03*
D11*
X197390000Y-158960000D03*
X203740000Y-156420000D03*
D12*
X201200000Y-161500000D03*
D13*
X194115000Y-158960000D03*
X207042000Y-156420000D03*
%TD*%
D10*
%TO.C,SW09_00*%
X238995000Y-123375000D03*
X249155000Y-123375000D03*
D12*
X244075000Y-123375000D03*
D11*
X240265000Y-120835000D03*
X246615000Y-118295000D03*
D13*
X236990000Y-120835000D03*
X249917000Y-118295000D03*
%TD*%
D14*
%TO.C,LED02_01*%
X112975000Y-146250000D03*
X112975000Y-147750000D03*
X117975000Y-147750000D03*
X117975000Y-146250000D03*
%TD*%
%TO.C,LED08_01*%
X227250000Y-146275000D03*
X227250000Y-147775000D03*
X232250000Y-147775000D03*
X232250000Y-146275000D03*
%TD*%
%TO.C,LED13_02*%
X327300000Y-165325000D03*
X327300000Y-166825000D03*
X332300000Y-166825000D03*
X332300000Y-165325000D03*
%TD*%
D12*
%TO.C,SW01_01*%
X96425000Y-142425000D03*
D10*
X101505000Y-142425000D03*
X91345000Y-142425000D03*
D11*
X98965000Y-137345000D03*
X92615000Y-139885000D03*
D13*
X89340000Y-139885000D03*
X102267000Y-137345000D03*
%TD*%
D11*
%TO.C,SW05_02*%
X184690000Y-156395000D03*
D12*
X182150000Y-161475000D03*
D11*
X178340000Y-158935000D03*
D10*
X177070000Y-161475000D03*
X187230000Y-161475000D03*
D13*
X175065000Y-158935000D03*
X187992000Y-156395000D03*
%TD*%
D11*
%TO.C,SW01_02*%
X108490000Y-156395000D03*
D10*
X100870000Y-161475000D03*
D12*
X105950000Y-161475000D03*
D10*
X111030000Y-161475000D03*
D11*
X102140000Y-158935000D03*
D13*
X98865000Y-158935000D03*
X111792000Y-156395000D03*
%TD*%
D11*
%TO.C,SW10_02*%
X279940000Y-156395000D03*
X273590000Y-158935000D03*
D10*
X282480000Y-161475000D03*
X272320000Y-161475000D03*
D12*
X277400000Y-161475000D03*
D13*
X270315000Y-158935000D03*
X283242000Y-156395000D03*
%TD*%
D12*
%TO.C,SW07_03*%
X205937000Y-172245000D03*
D10*
X222955000Y-180500000D03*
D11*
X220415000Y-175420000D03*
X214065000Y-177960000D03*
D12*
X229813000Y-172245000D03*
X217875000Y-180500000D03*
D10*
X212795000Y-180500000D03*
D15*
X205937000Y-187485000D03*
X229813000Y-187485000D03*
D13*
X210790000Y-177960000D03*
X223717000Y-175420000D03*
%TD*%
D12*
%TO.C,SW00_02*%
X63012000Y-169780550D03*
X74950000Y-161525550D03*
D15*
X86888000Y-154540550D03*
D12*
X86888000Y-169780550D03*
D10*
X80030000Y-161525550D03*
X69870000Y-161525550D03*
D11*
X77490000Y-156445550D03*
X71140000Y-158985550D03*
D15*
X63012000Y-154540550D03*
D13*
X67865000Y-158985550D03*
X80792000Y-156445550D03*
%TD*%
D14*
%TO.C,LED04_00*%
X146325000Y-127200000D03*
X146325000Y-128700000D03*
X151325000Y-128700000D03*
X151325000Y-127200000D03*
%TD*%
D10*
%TO.C,SW13_00*%
X319970000Y-123375000D03*
D12*
X325050000Y-123375000D03*
D11*
X327590000Y-118295000D03*
X321240000Y-120835000D03*
D10*
X330130000Y-123375000D03*
D13*
X317965000Y-120835000D03*
X330892000Y-118295000D03*
%TD*%
D11*
%TO.C,SW12_03*%
X313290000Y-175445000D03*
X306940000Y-177985000D03*
D12*
X310750000Y-180525000D03*
D10*
X305670000Y-180525000D03*
X315830000Y-180525000D03*
D13*
X303665000Y-177985000D03*
X316592000Y-175445000D03*
%TD*%
D14*
%TO.C,LED11_02*%
X301125000Y-165325000D03*
X301125000Y-166825000D03*
X306125000Y-166825000D03*
X306125000Y-165325000D03*
%TD*%
%TO.C,LED03_03*%
X143925000Y-184375000D03*
X143925000Y-185875000D03*
X148925000Y-185875000D03*
X148925000Y-184375000D03*
%TD*%
%TO.C,LED09_00*%
X241575000Y-127225000D03*
X241575000Y-128725000D03*
X246575000Y-128725000D03*
X246575000Y-127225000D03*
%TD*%
%TO.C,LED06_00*%
X184425000Y-127200000D03*
X184425000Y-128700000D03*
X189425000Y-128700000D03*
X189425000Y-127200000D03*
%TD*%
%TO.C,LED14_01*%
X346350000Y-146275000D03*
X346350000Y-147775000D03*
X351350000Y-147775000D03*
X351350000Y-146275000D03*
%TD*%
%TO.C,LED13_00*%
X322550000Y-127225000D03*
X322550000Y-128725000D03*
X327550000Y-128725000D03*
X327550000Y-127225000D03*
%TD*%
%TO.C,LED01_00*%
X89175000Y-127200000D03*
X89175000Y-128700000D03*
X94175000Y-128700000D03*
X94175000Y-127200000D03*
%TD*%
D11*
%TO.C,SW07_02*%
X216440000Y-158935000D03*
D10*
X225330000Y-161475000D03*
X215170000Y-161475000D03*
D12*
X220250000Y-161475000D03*
D11*
X222790000Y-156395000D03*
D13*
X213165000Y-158935000D03*
X226092000Y-156395000D03*
%TD*%
D14*
%TO.C,LED10_02*%
X274900000Y-165325000D03*
X274900000Y-166825000D03*
X279900000Y-166825000D03*
X279900000Y-165325000D03*
%TD*%
%TO.C,LED12_01*%
X315375000Y-146275000D03*
X315375000Y-147775000D03*
X320375000Y-147775000D03*
X320375000Y-146275000D03*
%TD*%
D11*
%TO.C,SW13_02*%
X325990000Y-158935000D03*
D10*
X334880000Y-161475000D03*
D12*
X329800000Y-161475000D03*
D11*
X332340000Y-156395000D03*
D10*
X324720000Y-161475000D03*
D13*
X322715000Y-158935000D03*
X335642000Y-156395000D03*
%TD*%
D14*
%TO.C,LED11_00*%
X279675000Y-127225000D03*
X279675000Y-128725000D03*
X284675000Y-128725000D03*
X284675000Y-127225000D03*
%TD*%
D12*
%TO.C,SW10_01*%
X267875000Y-142425000D03*
D11*
X270415000Y-137345000D03*
D10*
X262795000Y-142425000D03*
D11*
X264065000Y-139885000D03*
D10*
X272955000Y-142425000D03*
D13*
X260790000Y-139885000D03*
X273717000Y-137345000D03*
%TD*%
D14*
%TO.C,LED09_01*%
X246325000Y-146275000D03*
X246325000Y-147775000D03*
X251325000Y-147775000D03*
X251325000Y-146275000D03*
%TD*%
D11*
%TO.C,SW04_02*%
X159290000Y-158935000D03*
D12*
X163100000Y-161475000D03*
D10*
X168180000Y-161475000D03*
D11*
X165640000Y-156395000D03*
D10*
X158020000Y-161475000D03*
D13*
X156015000Y-158935000D03*
X168942000Y-156395000D03*
%TD*%
D12*
%TO.C,SW04_01*%
X153600000Y-142425000D03*
D10*
X158680000Y-142425000D03*
D11*
X156140000Y-137345000D03*
D10*
X148520000Y-142425000D03*
D11*
X149790000Y-139885000D03*
D13*
X146515000Y-139885000D03*
X159442000Y-137345000D03*
%TD*%
D11*
%TO.C,SW11_02*%
X306165000Y-156370000D03*
D12*
X303625000Y-161450000D03*
D10*
X308705000Y-161450000D03*
D11*
X299815000Y-158910000D03*
D10*
X298545000Y-161450000D03*
D13*
X296540000Y-158910000D03*
X309467000Y-156370000D03*
%TD*%
D11*
%TO.C,SW03_01*%
X137065000Y-137320000D03*
D10*
X129445000Y-142400000D03*
D11*
X130715000Y-139860000D03*
D12*
X134525000Y-142400000D03*
D10*
X139605000Y-142400000D03*
D13*
X127440000Y-139860000D03*
X140367000Y-137320000D03*
%TD*%
D11*
%TO.C,SW07_00*%
X208515000Y-118295000D03*
X202165000Y-120835000D03*
D12*
X205975000Y-123375000D03*
D10*
X211055000Y-123375000D03*
X200895000Y-123375000D03*
D13*
X198890000Y-120835000D03*
X211817000Y-118295000D03*
%TD*%
D11*
%TO.C,SW03_02*%
X140240000Y-158935000D03*
D12*
X144050000Y-161475000D03*
D10*
X149130000Y-161475000D03*
X138970000Y-161475000D03*
D11*
X146590000Y-156395000D03*
D13*
X136965000Y-158935000D03*
X149892000Y-156395000D03*
%TD*%
D11*
%TO.C,SW06_01*%
X187865000Y-139885000D03*
D12*
X191675000Y-142425000D03*
D10*
X196755000Y-142425000D03*
D11*
X194215000Y-137345000D03*
D10*
X186595000Y-142425000D03*
D13*
X184590000Y-139885000D03*
X197517000Y-137345000D03*
%TD*%
D14*
%TO.C,LED02_02*%
X122525000Y-165325000D03*
X122525000Y-166825000D03*
X127525000Y-166825000D03*
X127525000Y-165325000D03*
%TD*%
%TO.C,LED07_01*%
X208275000Y-146275000D03*
X208275000Y-147775000D03*
X213275000Y-147775000D03*
X213275000Y-146275000D03*
%TD*%
D10*
%TO.C,SW03_00*%
X134855000Y-123375000D03*
D12*
X129775000Y-123375000D03*
D11*
X125965000Y-120835000D03*
D10*
X124695000Y-123375000D03*
D11*
X132315000Y-118295000D03*
D13*
X122690000Y-120835000D03*
X135617000Y-118295000D03*
%TD*%
D12*
%TO.C,SW12_01*%
X329813000Y-134144450D03*
D11*
X314065000Y-139859450D03*
D10*
X322955000Y-142399450D03*
D15*
X329813000Y-149384450D03*
D11*
X320415000Y-137319450D03*
D12*
X305937000Y-134144450D03*
D15*
X305937000Y-149384450D03*
D10*
X312795000Y-142399450D03*
D12*
X317875000Y-142399450D03*
D13*
X310790000Y-139859450D03*
X323717000Y-137319450D03*
%TD*%
D14*
%TO.C,LED00_00*%
X65375000Y-127225000D03*
X65375000Y-128725000D03*
X70375000Y-128725000D03*
X70375000Y-127225000D03*
%TD*%
%TO.C,LED10_00*%
X260600000Y-127225000D03*
X260600000Y-128725000D03*
X265600000Y-128725000D03*
X265600000Y-127225000D03*
%TD*%
%TO.C,LED02_03*%
X110600000Y-184375000D03*
X110600000Y-185875000D03*
X115600000Y-185875000D03*
X115600000Y-184375000D03*
%TD*%
D10*
%TO.C,SW13_03*%
X334880000Y-180525000D03*
X324720000Y-180525000D03*
D11*
X325990000Y-177985000D03*
X332340000Y-175445000D03*
D12*
X329800000Y-180525000D03*
D13*
X322715000Y-177985000D03*
X335642000Y-175445000D03*
%TD*%
D11*
%TO.C,SW07_01*%
X206940000Y-139885000D03*
X213290000Y-137345000D03*
D12*
X210750000Y-142425000D03*
D10*
X205670000Y-142425000D03*
X215830000Y-142425000D03*
D13*
X203665000Y-139885000D03*
X216592000Y-137345000D03*
%TD*%
D10*
%TO.C,SW09_02*%
X263430000Y-161475000D03*
D12*
X258350000Y-161475000D03*
D11*
X254540000Y-158935000D03*
X260890000Y-156395000D03*
D10*
X253270000Y-161475000D03*
D13*
X251265000Y-158935000D03*
X264192000Y-156395000D03*
%TD*%
D12*
%TO.C,SW01_00*%
X91675000Y-123375000D03*
D11*
X87865000Y-120835000D03*
D10*
X86595000Y-123375000D03*
D11*
X94215000Y-118295000D03*
D10*
X96755000Y-123375000D03*
D13*
X84590000Y-120835000D03*
X97517000Y-118295000D03*
%TD*%
D12*
%TO.C,SW02_03*%
X113100000Y-180550000D03*
D11*
X109290000Y-178010000D03*
D10*
X118180000Y-180550000D03*
D11*
X115640000Y-175470000D03*
D10*
X108020000Y-180550000D03*
D13*
X106015000Y-178010000D03*
X118942000Y-175470000D03*
%TD*%
D10*
%TO.C,SW05_01*%
X167545000Y-142425000D03*
X177705000Y-142425000D03*
D11*
X175165000Y-137345000D03*
X168815000Y-139885000D03*
D12*
X172625000Y-142425000D03*
D13*
X165540000Y-139885000D03*
X178467000Y-137345000D03*
%TD*%
D11*
%TO.C,SW02_00*%
X106915000Y-120835000D03*
D10*
X105645000Y-123375000D03*
D11*
X113265000Y-118295000D03*
D12*
X110725000Y-123375000D03*
D10*
X115805000Y-123375000D03*
D13*
X103640000Y-120835000D03*
X116567000Y-118295000D03*
%TD*%
D12*
%TO.C,SW12_00*%
X301225000Y-123325000D03*
D11*
X303765000Y-118245000D03*
D10*
X306305000Y-123325000D03*
X296145000Y-123325000D03*
D11*
X297415000Y-120785000D03*
D13*
X294140000Y-120785000D03*
X307067000Y-118245000D03*
%TD*%
D14*
%TO.C,LED05_03*%
X177325000Y-184375000D03*
X177325000Y-185875000D03*
X182325000Y-185875000D03*
X182325000Y-184375000D03*
%TD*%
D11*
%TO.C,SW10_03*%
X282340000Y-175445000D03*
D10*
X274720000Y-180525000D03*
D11*
X275990000Y-177985000D03*
D12*
X279800000Y-180525000D03*
D10*
X284880000Y-180525000D03*
D13*
X272715000Y-177985000D03*
X285642000Y-175445000D03*
%TD*%
D14*
%TO.C,LED10_01*%
X265375000Y-146275000D03*
X265375000Y-147775000D03*
X270375000Y-147775000D03*
X270375000Y-146275000D03*
%TD*%
D10*
%TO.C,SW02_01*%
X110395000Y-142400000D03*
X120555000Y-142400000D03*
D11*
X118015000Y-137320000D03*
D12*
X115475000Y-142400000D03*
D11*
X111665000Y-139860000D03*
D13*
X108390000Y-139860000D03*
X121317000Y-137320000D03*
%TD*%
D14*
%TO.C,LED00_01*%
X67750000Y-146275000D03*
X67750000Y-147775000D03*
X72750000Y-147775000D03*
X72750000Y-146275000D03*
%TD*%
D10*
%TO.C,SW04_00*%
X153905000Y-123375000D03*
D11*
X151365000Y-118295000D03*
D10*
X143745000Y-123375000D03*
D12*
X148825000Y-123375000D03*
D11*
X145015000Y-120835000D03*
D13*
X141740000Y-120835000D03*
X154667000Y-118295000D03*
%TD*%
D12*
%TO.C,SW02_02*%
X125000000Y-161425000D03*
D11*
X121190000Y-158885000D03*
D10*
X119920000Y-161425000D03*
X130080000Y-161425000D03*
D11*
X127540000Y-156345000D03*
D13*
X117915000Y-158885000D03*
X130842000Y-156345000D03*
%TD*%
D14*
%TO.C,LED09_03*%
X253475000Y-184375000D03*
X253475000Y-185875000D03*
X258475000Y-185875000D03*
X258475000Y-184375000D03*
%TD*%
%TO.C,LED04_01*%
X151100000Y-146275000D03*
X151100000Y-147775000D03*
X156100000Y-147775000D03*
X156100000Y-146275000D03*
%TD*%
%TO.C,LED01_02*%
X103450000Y-165325000D03*
X103450000Y-166825000D03*
X108450000Y-166825000D03*
X108450000Y-165325000D03*
%TD*%
D12*
%TO.C,SW08_02*%
X239300000Y-161475000D03*
D11*
X235490000Y-158935000D03*
D10*
X234220000Y-161475000D03*
D11*
X241840000Y-156395000D03*
D10*
X244380000Y-161475000D03*
D13*
X232215000Y-158935000D03*
X245142000Y-156395000D03*
%TD*%
D14*
%TO.C,LED05_02*%
X179650000Y-165325000D03*
X179650000Y-166825000D03*
X184650000Y-166825000D03*
X184650000Y-165325000D03*
%TD*%
%TO.C,LED03_00*%
X127275000Y-127225000D03*
X127275000Y-128725000D03*
X132275000Y-128725000D03*
X132275000Y-127225000D03*
%TD*%
%TO.C,LED02_00*%
X108225000Y-127225000D03*
X108225000Y-128725000D03*
X113225000Y-128725000D03*
X113225000Y-127225000D03*
%TD*%
D11*
%TO.C,SW11_00*%
X278365000Y-120835000D03*
D12*
X282175000Y-123375000D03*
D11*
X284715000Y-118295000D03*
D10*
X277095000Y-123375000D03*
X287255000Y-123375000D03*
D13*
X275090000Y-120835000D03*
X288017000Y-118295000D03*
%TD*%
D10*
%TO.C,SW09_01*%
X243745000Y-142425000D03*
D11*
X251365000Y-137345000D03*
X245015000Y-139885000D03*
D12*
X248825000Y-142425000D03*
D10*
X253905000Y-142425000D03*
D13*
X241740000Y-139885000D03*
X254667000Y-137345000D03*
%TD*%
D11*
%TO.C,SW05_03*%
X176015000Y-177960000D03*
X182365000Y-175420000D03*
D10*
X184905000Y-180500000D03*
D12*
X179825000Y-180500000D03*
D10*
X174745000Y-180500000D03*
D13*
X172740000Y-177960000D03*
X185667000Y-175420000D03*
%TD*%
D14*
%TO.C,LED03_01*%
X132025000Y-146275000D03*
X132025000Y-147775000D03*
X137025000Y-147775000D03*
X137025000Y-146275000D03*
%TD*%
%TO.C,LED04_02*%
X160590000Y-165325000D03*
X160590000Y-166825000D03*
X165590000Y-166825000D03*
X165590000Y-165325000D03*
%TD*%
D10*
%TO.C,SW10_00*%
X258020000Y-123375000D03*
D11*
X265640000Y-118295000D03*
X259290000Y-120835000D03*
D12*
X263100000Y-123375000D03*
D10*
X268180000Y-123375000D03*
D13*
X256015000Y-120835000D03*
X268942000Y-118295000D03*
%TD*%
D14*
%TO.C,LED10_03*%
X277300000Y-184375000D03*
X277300000Y-185875000D03*
X282300000Y-185875000D03*
X282300000Y-184375000D03*
%TD*%
D11*
%TO.C,SW01_03*%
X85475000Y-178000000D03*
D10*
X94365000Y-180540000D03*
X84205000Y-180540000D03*
D12*
X89285000Y-180540000D03*
D11*
X91825000Y-175460000D03*
D13*
X82200000Y-178000000D03*
X95127000Y-175460000D03*
%TD*%
D14*
%TO.C,LED05_01*%
X170125000Y-146275000D03*
X170125000Y-147775000D03*
X175125000Y-147775000D03*
X175125000Y-146275000D03*
%TD*%
%TO.C,LED06_02*%
X198700000Y-165325000D03*
X198700000Y-166825000D03*
X203700000Y-166825000D03*
X203700000Y-165325000D03*
%TD*%
D12*
%TO.C,SW14_03*%
X348825000Y-180525000D03*
D10*
X343745000Y-180525000D03*
D11*
X345015000Y-177985000D03*
D10*
X353905000Y-180525000D03*
D11*
X351365000Y-175445000D03*
D13*
X341740000Y-177985000D03*
X354667000Y-175445000D03*
%TD*%
D12*
%TO.C,SW05_00*%
X167850000Y-123375000D03*
D11*
X170390000Y-118295000D03*
D10*
X172930000Y-123375000D03*
D11*
X164040000Y-120835000D03*
D10*
X162770000Y-123375000D03*
D13*
X160765000Y-120835000D03*
X173692000Y-118295000D03*
%TD*%
D14*
%TO.C,LED13_03*%
X327300000Y-184375000D03*
X327300000Y-185875000D03*
X332300000Y-185875000D03*
X332300000Y-184375000D03*
%TD*%
%TO.C,LED11_01*%
X284425000Y-146275000D03*
X284425000Y-147775000D03*
X289425000Y-147775000D03*
X289425000Y-146275000D03*
%TD*%
%TO.C,LED03_02*%
X141540000Y-165325000D03*
X141540000Y-166825000D03*
X146540000Y-166825000D03*
X146540000Y-165325000D03*
%TD*%
%TO.C,LED14_03*%
X346300000Y-184350000D03*
X346300000Y-185850000D03*
X351300000Y-185850000D03*
X351300000Y-184350000D03*
%TD*%
D10*
%TO.C,SW14_01*%
X353930000Y-142425000D03*
D12*
X348850000Y-142425000D03*
D10*
X343770000Y-142425000D03*
D11*
X345040000Y-139885000D03*
X351390000Y-137345000D03*
D13*
X341765000Y-139885000D03*
X354692000Y-137345000D03*
%TD*%
D14*
%TO.C,LED08_00*%
X222475000Y-127225000D03*
X222475000Y-128725000D03*
X227475000Y-128725000D03*
X227475000Y-127225000D03*
%TD*%
D10*
%TO.C,SW11_01*%
X281845000Y-142425000D03*
X292005000Y-142425000D03*
D11*
X289465000Y-137345000D03*
D12*
X286925000Y-142425000D03*
D11*
X283115000Y-139885000D03*
D13*
X279840000Y-139885000D03*
X292767000Y-137345000D03*
%TD*%
D11*
%TO.C,SW00_01*%
X66440000Y-139910000D03*
D10*
X75330000Y-142450000D03*
D12*
X70250000Y-142450000D03*
D10*
X65170000Y-142450000D03*
D11*
X72790000Y-137370000D03*
D13*
X63165000Y-139910000D03*
X76092000Y-137370000D03*
%TD*%
D14*
%TO.C,LED14_00*%
X346350000Y-127225000D03*
X346350000Y-128725000D03*
X351350000Y-128725000D03*
X351350000Y-127225000D03*
%TD*%
D10*
%TO.C,SW09_03*%
X250895000Y-180475000D03*
D12*
X255975000Y-180475000D03*
D11*
X252165000Y-177935000D03*
D10*
X261055000Y-180475000D03*
D11*
X258515000Y-175395000D03*
D13*
X248890000Y-177935000D03*
X261817000Y-175395000D03*
%TD*%
D14*
%TO.C,LED05_00*%
X165350000Y-127225000D03*
X165350000Y-128725000D03*
X170350000Y-128725000D03*
X170350000Y-127225000D03*
%TD*%
%TO.C,LED00_02*%
X72450000Y-165325000D03*
X72450000Y-166825000D03*
X77450000Y-166825000D03*
X77450000Y-165325000D03*
%TD*%
%TO.C,LED12_03*%
X308250000Y-184375000D03*
X308250000Y-185875000D03*
X313250000Y-185875000D03*
X313250000Y-184375000D03*
%TD*%
%TO.C,LED08_02*%
X236800000Y-165325000D03*
X236800000Y-166825000D03*
X241800000Y-166825000D03*
X241800000Y-165325000D03*
%TD*%
%TO.C,LED07_02*%
X217750000Y-165325000D03*
X217750000Y-166825000D03*
X222750000Y-166825000D03*
X222750000Y-165325000D03*
%TD*%
%TO.C,LED12_00*%
X298725000Y-127225000D03*
X298725000Y-128725000D03*
X303725000Y-128725000D03*
X303725000Y-127225000D03*
%TD*%
D10*
%TO.C,SW08_00*%
X219945000Y-123375000D03*
X230105000Y-123375000D03*
D11*
X227565000Y-118295000D03*
D12*
X225025000Y-123375000D03*
D11*
X221215000Y-120835000D03*
D13*
X217940000Y-120835000D03*
X230867000Y-118295000D03*
%TD*%
D12*
%TO.C,SW00_00*%
X67875000Y-123400000D03*
D10*
X72955000Y-123400000D03*
D11*
X70415000Y-118320000D03*
X64065000Y-120860000D03*
D10*
X62795000Y-123400000D03*
D13*
X60790000Y-120860000D03*
X73717000Y-118320000D03*
%TD*%
D10*
%TO.C,SW08_01*%
X224695000Y-142425000D03*
D11*
X232315000Y-137345000D03*
X225965000Y-139885000D03*
D10*
X234855000Y-142425000D03*
D12*
X229775000Y-142425000D03*
D13*
X222690000Y-139885000D03*
X235617000Y-137345000D03*
%TD*%
D14*
%TO.C,LED09_02*%
X255850000Y-165325000D03*
X255850000Y-166825000D03*
X260850000Y-166825000D03*
X260850000Y-165325000D03*
%TD*%
D11*
%TO.C,SW00_03*%
X61665000Y-177985000D03*
D12*
X65475000Y-180525000D03*
D10*
X60395000Y-180525000D03*
D11*
X68015000Y-175445000D03*
D10*
X70555000Y-180525000D03*
D13*
X58390000Y-177985000D03*
X71317000Y-175445000D03*
%TD*%
D12*
%TO.C,SW06_00*%
X186925000Y-123375000D03*
D10*
X192005000Y-123375000D03*
D11*
X189465000Y-118295000D03*
X183115000Y-120835000D03*
D10*
X181845000Y-123375000D03*
D13*
X179840000Y-120835000D03*
X192767000Y-118295000D03*
%TD*%
D14*
%TO.C,LED01_03*%
X86790000Y-184375000D03*
X86790000Y-185875000D03*
X91790000Y-185875000D03*
X91790000Y-184375000D03*
%TD*%
D12*
%TO.C,SW14_00*%
X348850000Y-123350000D03*
D11*
X345040000Y-120810000D03*
D10*
X343770000Y-123350000D03*
X353930000Y-123350000D03*
D11*
X351390000Y-118270000D03*
D13*
X341765000Y-120810000D03*
X354692000Y-118270000D03*
%TD*%
D14*
%TO.C,LED00_03*%
X62975000Y-184375000D03*
X62975000Y-185875000D03*
X67975000Y-185875000D03*
X67975000Y-184375000D03*
%TD*%
%TO.C,LED07_00*%
X203475000Y-127225000D03*
X203475000Y-128725000D03*
X208475000Y-128725000D03*
X208475000Y-127225000D03*
%TD*%
%TO.C,LED01_01*%
X93925000Y-146275000D03*
X93925000Y-147775000D03*
X98925000Y-147775000D03*
X98925000Y-146275000D03*
%TD*%
%TO.C,LED07_03*%
X215375000Y-184375000D03*
X215375000Y-185875000D03*
X220375000Y-185875000D03*
X220375000Y-184375000D03*
%TD*%
%TO.C,LED06_01*%
X189175000Y-146275000D03*
X189175000Y-147775000D03*
X194175000Y-147775000D03*
X194175000Y-146275000D03*
%TD*%
D10*
%TO.C,SW03_03*%
X141345000Y-180524450D03*
D15*
X134487000Y-187509450D03*
D12*
X158363000Y-172269450D03*
D10*
X151505000Y-180524450D03*
D11*
X148965000Y-175444450D03*
D12*
X146425000Y-180524450D03*
D11*
X142615000Y-177984450D03*
D15*
X158363000Y-187509450D03*
D12*
X134487000Y-172269450D03*
D13*
X139340000Y-177984450D03*
X152267000Y-175444450D03*
%TD*%
D16*
%TO.C,ULED02*%
X236900000Y-134550000D03*
X236900000Y-131250000D03*
X241700000Y-131250000D03*
X241700000Y-134550000D03*
%TD*%
D17*
%TO.C,D07_00*%
X212975000Y-128675000D03*
X212975000Y-125375000D03*
%TD*%
%TO.C,D10_01*%
X274875000Y-147675000D03*
X274875000Y-144375000D03*
%TD*%
D18*
%TO.C,J0*%
X208790000Y-112075000D03*
X203010000Y-112075000D03*
D19*
X202650000Y-113520000D03*
X203450000Y-113520000D03*
D20*
X204650000Y-113520000D03*
X205650000Y-113520000D03*
X206150000Y-113520000D03*
X207150000Y-113520000D03*
D19*
X208350000Y-113520000D03*
X209150000Y-113520000D03*
X209150000Y-113520000D03*
X208350000Y-113520000D03*
D20*
X207650000Y-113520000D03*
X206650000Y-113520000D03*
X205150000Y-113520000D03*
X204150000Y-113520000D03*
D19*
X203450000Y-113520000D03*
X202650000Y-113520000D03*
D21*
X210220000Y-112605000D03*
D22*
X210220000Y-108425000D03*
X201580000Y-108425000D03*
D21*
X201580000Y-112605000D03*
%TD*%
D23*
%TO.C,C1*%
X192025000Y-188375000D03*
X192025000Y-185425000D03*
%TD*%
D17*
%TO.C,D03_01*%
X141525000Y-147675000D03*
X141525000Y-144375000D03*
%TD*%
%TO.C,D05_02*%
X189150000Y-166800000D03*
X189150000Y-163500000D03*
%TD*%
D24*
%TO.C,R3*%
X241275000Y-175012500D03*
X241275000Y-177937500D03*
%TD*%
D17*
%TO.C,D06_00*%
X193925000Y-128675000D03*
X193925000Y-125375000D03*
%TD*%
%TO.C,D01_00*%
X98675000Y-128675000D03*
X98675000Y-125375000D03*
%TD*%
%TO.C,D13_02*%
X336800000Y-166800000D03*
X336800000Y-163500000D03*
%TD*%
%TO.C,D07_02*%
X227250000Y-166800000D03*
X227250000Y-163500000D03*
%TD*%
D25*
%TO.C,R5*%
X237337500Y-180525000D03*
X240262500Y-180525000D03*
%TD*%
D17*
%TO.C,D02_01*%
X122475000Y-147675000D03*
X122475000Y-144375000D03*
%TD*%
%TO.C,D12_01*%
X324875000Y-147675000D03*
X324875000Y-144375000D03*
%TD*%
%TO.C,D00_00*%
X74850000Y-128675000D03*
X74850000Y-125375000D03*
%TD*%
%TO.C,D01_03*%
X96275000Y-185825000D03*
X96275000Y-182525000D03*
%TD*%
%TO.C,D09_03*%
X262975000Y-185825000D03*
X262975000Y-182525000D03*
%TD*%
D16*
%TO.C,ULED05*%
X77250000Y-134575000D03*
X77250000Y-131275000D03*
X82050000Y-131275000D03*
X82050000Y-134575000D03*
%TD*%
D17*
%TO.C,D02_02*%
X132000000Y-166800000D03*
X132000000Y-163500000D03*
%TD*%
%TO.C,D12_00*%
X308225000Y-128675000D03*
X308225000Y-125375000D03*
%TD*%
%TO.C,D08_02*%
X246300000Y-166800000D03*
X246300000Y-163500000D03*
%TD*%
%TO.C,D03_02*%
X151050000Y-166800000D03*
X151050000Y-163500000D03*
%TD*%
%TO.C,D11_00*%
X289175000Y-128675000D03*
X289175000Y-125375000D03*
%TD*%
D26*
%TO.C,C3*%
X166575000Y-176050000D03*
X163625000Y-176050000D03*
%TD*%
D17*
%TO.C,D01_02*%
X112950000Y-166800000D03*
X112950000Y-163500000D03*
%TD*%
D24*
%TO.C,R4*%
X244950000Y-175012500D03*
X244950000Y-177937500D03*
%TD*%
D17*
%TO.C,D00_02*%
X82025000Y-166800000D03*
X82025000Y-163500000D03*
%TD*%
%TO.C,D07_03*%
X224875000Y-185825000D03*
X224875000Y-182525000D03*
%TD*%
D16*
%TO.C,ULED01*%
X294050000Y-134500000D03*
X294050000Y-131200000D03*
X298850000Y-131200000D03*
X298850000Y-134500000D03*
%TD*%
D17*
%TO.C,D10_03*%
X286800000Y-185825000D03*
X286800000Y-182525000D03*
%TD*%
D16*
%TO.C,ULED11*%
X341725000Y-168825000D03*
X341725000Y-172125000D03*
X336925000Y-172125000D03*
X336925000Y-168825000D03*
%TD*%
D27*
%TO.C,Y0*%
X197775000Y-188275000D03*
X195575000Y-188275000D03*
X195575000Y-186675000D03*
X197775000Y-186675000D03*
%TD*%
D17*
%TO.C,D10_00*%
X270125000Y-128675000D03*
X270125000Y-125375000D03*
%TD*%
D16*
%TO.C,ULED07*%
X127400000Y-168825000D03*
X127400000Y-172125000D03*
X122600000Y-172125000D03*
X122600000Y-168825000D03*
%TD*%
D17*
%TO.C,D11_02*%
X310600000Y-166800000D03*
X310600000Y-163500000D03*
%TD*%
%TO.C,D09_01*%
X255825000Y-147675000D03*
X255825000Y-144375000D03*
%TD*%
%TO.C,D02_03*%
X120100000Y-185825000D03*
X120100000Y-182525000D03*
%TD*%
D16*
%TO.C,ULED04*%
X122600000Y-134525000D03*
X122600000Y-131225000D03*
X127400000Y-131225000D03*
X127400000Y-134525000D03*
%TD*%
D17*
%TO.C,D12_03*%
X317750000Y-185825000D03*
X317750000Y-182525000D03*
%TD*%
%TO.C,D06_02*%
X208200000Y-166800000D03*
X208200000Y-163500000D03*
%TD*%
D28*
%TO.C,U0*%
X201600000Y-172350000D03*
X201600000Y-173150000D03*
X201600000Y-173950000D03*
X201600000Y-174750000D03*
X201600000Y-175550000D03*
X201600000Y-176350000D03*
X201600000Y-177150000D03*
X201600000Y-177950000D03*
X201600000Y-178750000D03*
X201600000Y-179550000D03*
X201600000Y-180350000D03*
D29*
X199900000Y-182050000D03*
X199100000Y-182050000D03*
X198300000Y-182050000D03*
X197500000Y-182050000D03*
X196700000Y-182050000D03*
X195900000Y-182050000D03*
X195100000Y-182050000D03*
X194300000Y-182050000D03*
X193500000Y-182050000D03*
X192700000Y-182050000D03*
X191900000Y-182050000D03*
D28*
X190200000Y-180350000D03*
X190200000Y-179550000D03*
X190200000Y-178750000D03*
X190200000Y-177950000D03*
X190200000Y-177150000D03*
X190200000Y-176350000D03*
X190200000Y-175550000D03*
X190200000Y-174750000D03*
X190200000Y-173950000D03*
X190200000Y-173150000D03*
X190200000Y-172350000D03*
D29*
X191900000Y-170650000D03*
X192700000Y-170650000D03*
X193500000Y-170650000D03*
X194300000Y-170650000D03*
X195100000Y-170650000D03*
X195900000Y-170650000D03*
X196700000Y-170650000D03*
X197500000Y-170650000D03*
X198300000Y-170650000D03*
X199100000Y-170650000D03*
X199900000Y-170650000D03*
%TD*%
D16*
%TO.C,ULED10*%
X298850000Y-168825000D03*
X298850000Y-172125000D03*
X294050000Y-172125000D03*
X294050000Y-168825000D03*
%TD*%
%TO.C,ULED03*%
X179750000Y-134550000D03*
X179750000Y-131250000D03*
X184550000Y-131250000D03*
X184550000Y-134550000D03*
%TD*%
D17*
%TO.C,D09_00*%
X251075000Y-128675000D03*
X251075000Y-125375000D03*
%TD*%
%TO.C,D05_03*%
X186775000Y-185825000D03*
X186775000Y-182525000D03*
%TD*%
D16*
%TO.C,ULED06*%
X82075000Y-168825000D03*
X82075000Y-172125000D03*
X77275000Y-172125000D03*
X77275000Y-168825000D03*
%TD*%
D17*
%TO.C,D09_02*%
X265350000Y-166800000D03*
X265350000Y-163500000D03*
%TD*%
%TO.C,D10_02*%
X284400000Y-166800000D03*
X284400000Y-163500000D03*
%TD*%
D16*
%TO.C,ULED08*%
X184550000Y-168825000D03*
X184550000Y-172125000D03*
X179750000Y-172125000D03*
X179750000Y-168825000D03*
%TD*%
D26*
%TO.C,C6*%
X166500000Y-187125000D03*
X163550000Y-187125000D03*
%TD*%
D17*
%TO.C,D14_01*%
X355850000Y-147675000D03*
X355850000Y-144375000D03*
%TD*%
D26*
%TO.C,C4*%
X166525000Y-179675000D03*
X163575000Y-179675000D03*
%TD*%
D17*
%TO.C,D08_00*%
X232025000Y-128675000D03*
X232025000Y-125375000D03*
%TD*%
D30*
%TO.C,R_SW0*%
X242325000Y-184125000D03*
X236325000Y-184125000D03*
X242325000Y-187875000D03*
X236325000Y-187875000D03*
%TD*%
D17*
%TO.C,D13_03*%
X336800000Y-185825000D03*
X336800000Y-182525000D03*
%TD*%
%TO.C,D00_01*%
X77250000Y-147675000D03*
X77250000Y-144375000D03*
%TD*%
%TO.C,D01_01*%
X103425000Y-147675000D03*
X103425000Y-144375000D03*
%TD*%
%TO.C,D00_03*%
X72475000Y-185825000D03*
X72475000Y-182525000D03*
%TD*%
%TO.C,D13_00*%
X332025000Y-128675000D03*
X332025000Y-125375000D03*
%TD*%
%TO.C,D04_02*%
X170100000Y-166800000D03*
X170100000Y-163500000D03*
%TD*%
%TO.C,D11_01*%
X293925000Y-147675000D03*
X293925000Y-144375000D03*
%TD*%
%TO.C,D05_01*%
X179625000Y-147675000D03*
X179625000Y-144375000D03*
%TD*%
D24*
%TO.C,R1*%
X232325000Y-175012500D03*
X232325000Y-177937500D03*
%TD*%
D17*
%TO.C,D02_00*%
X117725000Y-128675000D03*
X117725000Y-125375000D03*
%TD*%
%TO.C,D04_01*%
X160575000Y-147675000D03*
X160575000Y-144375000D03*
%TD*%
D31*
%TO.C,R0*%
X169587500Y-172350000D03*
X166662500Y-172350000D03*
%TD*%
D24*
%TO.C,R2*%
X236025000Y-175012500D03*
X236025000Y-177937500D03*
%TD*%
D17*
%TO.C,D03_00*%
X136775000Y-128675000D03*
X136775000Y-125375000D03*
%TD*%
%TO.C,D08_01*%
X236775000Y-147675000D03*
X236775000Y-144375000D03*
%TD*%
D32*
%TO.C,C0*%
X207425000Y-184150000D03*
X204475000Y-184150000D03*
%TD*%
D17*
%TO.C,D04_00*%
X155825000Y-128675000D03*
X155825000Y-125375000D03*
%TD*%
%TO.C,D07_01*%
X217725000Y-147675000D03*
X217725000Y-144375000D03*
%TD*%
%TO.C,D06_01*%
X198675000Y-147675000D03*
X198675000Y-144375000D03*
%TD*%
%TO.C,D14_03*%
X355850000Y-185825000D03*
X355850000Y-182525000D03*
%TD*%
%TO.C,D03_03*%
X153450000Y-185825000D03*
X153450000Y-182525000D03*
%TD*%
D16*
%TO.C,ULED09*%
X241700000Y-168825000D03*
X241700000Y-172125000D03*
X236900000Y-172125000D03*
X236900000Y-168825000D03*
%TD*%
D17*
%TO.C,D05_00*%
X174850000Y-128675000D03*
X174850000Y-125375000D03*
%TD*%
D16*
%TO.C,ULED00*%
X336925000Y-134525000D03*
X336925000Y-131225000D03*
X341725000Y-131225000D03*
X341725000Y-134525000D03*
%TD*%
D17*
%TO.C,D14_00*%
X355850000Y-128675000D03*
X355850000Y-125375000D03*
%TD*%
D26*
%TO.C,C5*%
X166525000Y-183400000D03*
X163575000Y-183400000D03*
%TD*%
D23*
%TO.C,C2*%
X201425000Y-188225000D03*
X201425000Y-185275000D03*
%TD*%
M02*
