M48
; DRILL file {KiCad (6.0.9)} date Sat Dec 31 14:12:12 2022
; FORMAT={-:-/ absolute / inch / decimal}
; #@! TF.CreationDate,2022-12-31T14:12:12+09:00
; #@! TF.GenerationSoftware,Kicad,Pcbnew,(6.0.9)
; #@! TF.FileFunction,Plated,1,2,PTH
FMAT,2
INCH
; #@! TA.AperFunction,Plated,PTH,ViaDrill
T1C0.0157
; #@! TA.AperFunction,Plated,PTH,ComponentDrill
T2C0.0236
%
G90
G05
T1
X2.3799Y-7.3583
X2.4793Y-7.3179
X2.492Y-7.3819
X2.5738Y-5.0669
X2.6673Y-5.8179
X2.6762Y-7.2589
X2.7047Y-7.3819
X2.7067Y-7.4478
X2.7382Y-5.2982
X2.7707Y-5.0089
X2.8051Y-5.2982
X2.8524Y-6.5679
X2.8642Y-5.7589
X2.9596Y-6.1575
X3.0439Y-6.6491
X3.0492Y-6.5089
X3.0709Y-5.9006
X3.0974Y-5.8297
X3.2175Y-7.4124
X3.2303Y-5.2982
X3.2559Y-5.1083
X3.2992Y-7.3307
X3.3632Y-5.128
X3.3967Y-5.0955
X3.3967Y-5.1565
X3.4035Y-6.8012
X3.4173Y-7.3179
X3.4843Y-5.8809
X3.5108Y-5.0669
X3.5108Y-5.1565
X3.5405Y-6.6561
X3.5591Y-5.8809
X3.5669Y-6.627
X3.5885Y-5.8524
X3.5955Y-5.9094
X3.6191Y-6.6594
X3.6495Y-6.6278
X3.6959Y-6.5945
X3.6959Y-6.6585
X3.6978Y-5.8504
X3.6978Y-5.9094
X3.7067Y-5.0994
X3.7077Y-5.0079
X3.7077Y-5.1594
X3.7441Y-6.5993
X3.7441Y-6.6594
X3.9055Y-5.8524
X3.9055Y-5.9094
X4.0472Y-5.128
X4.1142Y-5.128
X4.1683Y-7.4124
X4.1811Y-5.0975
X4.1811Y-5.1545
X4.2146Y-6.6575
X4.2362Y-5.8809
X4.247Y-7.3327
X4.2608Y-5.0486
X4.2726Y-6.5993
X4.313Y-5.8809
X4.3445Y-6.9065
X4.3465Y-5.8524
X4.3466Y-5.9094
X4.3533Y-7.3179
X4.4331Y-6.628
X4.4341Y-6.9921
X4.4478Y-5.7976
X4.4577Y-5.0089
X4.4577Y-5.0975
X4.4577Y-5.1545
X4.4882Y-5.2441
X4.5217Y-6.628
X4.5512Y-7.2589
X4.555Y-6.6565
X4.5551Y-6.5994
X4.6067Y-7.0388
X4.6447Y-5.7579
X4.6447Y-5.8524
X4.6447Y-5.9094
X4.6959Y-7.0098
X4.7628Y-6.9892
X4.7628Y-7.0364
X4.8238Y-6.5679
X4.8268Y-6.6467
X4.8681Y-5.0276
X4.8789Y-5.2943
X4.8922Y-5.1343
X4.9547Y-5.1339
X4.9862Y-5.8809
X4.9888Y-5.6152
X5.0108Y-5.0935
X5.0207Y-6.5089
X5.0458Y-5.6693
X5.061Y-5.8809
X5.0908Y-5.9094
X5.0915Y-6.5955
X5.0915Y-5.8514
X5.0915Y-6.6555
X5.1295Y-5.2455
X5.1388Y-5.1545
X5.1722Y-7.4518
X5.1998Y-5.0975
X5.2037Y-5.8524
X5.2067Y-4.9478
X5.2077Y-5.0089
X5.2726Y-4.9478
X5.3612Y-6.624
X5.3947Y-5.7589
X5.3947Y-5.8524
X5.3947Y-5.9094
X5.4075Y-7.4528
X5.4232Y-6.623
X5.4469Y-6.8563
X5.4478Y-6.9154
X5.4567Y-6.5925
X5.4567Y-6.6516
X5.4783Y-7.4183
X5.5453Y-5.0108
X5.5492Y-5.1309
X5.5581Y-6.8652
X5.5669Y-7.3297
X5.5728Y-6.5866
X5.6013Y-6.821
X5.6122Y-5.1309
X5.6161Y-5.0098
X5.6476Y-5.1024
X5.6476Y-5.1634
X5.6654Y-7.3199
X5.7037Y-5.0512
X5.7175Y-6.8209
X5.7352Y-5.8809
X5.7693Y-6.5089
X5.7697Y-6.5945
X5.7697Y-6.6516
X5.8002Y-6.8209
X5.814Y-5.8809
X5.8451Y-5.9197
X5.8465Y-5.8524
X5.8632Y-7.2589
X5.9488Y-5.814
X5.9577Y-5.0079
X5.9577Y-5.1024
X5.9587Y-5.1594
X5.9892Y-5.2195
X6.0728Y-6.9921
X6.1024Y-7.4508
X6.1122Y-5.1949
X6.124Y-6.5866
X6.124Y-6.6526
X6.1457Y-5.7589
X6.1467Y-5.8524
X6.1467Y-5.9094
X6.2618Y-6.5394
X6.2972Y-5.1309
X6.3573Y-7.4508
X6.3612Y-5.1309
X6.3622Y-6.6841
X6.3907Y-5.0974
X6.3937Y-5.1594
X6.4833Y-5.8809
X6.5098Y-5.1614
X6.5108Y-5.0965
X6.5193Y-6.5089
X6.5581Y-5.8809
X6.5748Y-4.752
X6.5925Y-5.9094
X6.5935Y-5.8484
X6.6988Y-5.9094
X6.6998Y-5.8504
X6.7067Y-5.0089
X6.7067Y-5.0984
X6.7067Y-5.1555
X6.7116Y-6.8711
X6.7116Y-7.1673
X6.7776Y-6.7323
X6.7805Y-7.1584
X6.7923Y-7.4114
X6.8081Y-6.9281
X6.8533Y-6.8996
X6.8612Y-6.6309
X6.8638Y-6.6939
X6.878Y-7.3258
X6.8907Y-7.2205
X6.8947Y-5.9094
X6.8957Y-5.8524
X6.9203Y-4.7451
X6.9232Y-6.6309
X6.935Y-7.1919
X6.9577Y-6.6594
X6.9587Y-6.5994
X6.9813Y-7.2986
X7.0138Y-7.1919
X7.0177Y-5.1663
X7.0238Y-6.5785
X7.0768Y-5.2972
X7.0768Y-6.6467
X7.1275Y-5.034
X7.1418Y-5.1339
X7.1742Y-6.7195
X7.1988Y-5.1334
X7.2351Y-5.7097
X7.2352Y-5.753
X7.2362Y-5.8809
X7.2598Y-5.0476
X7.2697Y-6.7205
X7.2781Y-4.6392
X7.2958Y-5.753
X7.3031Y-6.7776
X7.3071Y-7.2234
X7.3081Y-5.8809
X7.3219Y-4.5945
X7.3415Y-5.9094
X7.3425Y-5.8494
X7.3561Y-6.6594
X7.3564Y-6.6024
X7.4262Y-5.2933
X7.4291Y-7.0844
X7.4331Y-7.0453
X7.4478Y-5.7986
X7.4528Y-5.9094
X7.4567Y-5.1555
X7.4577Y-5.0079
X7.4577Y-5.0984
X7.4675Y-7.0079
X7.4882Y-5.2933
X7.501Y-7.1398
X7.5108Y-6.8386
X7.5561Y-6.2234
X7.5571Y-6.0758
X7.5901Y-6.8401
X7.5915Y-6.6024
X7.5915Y-6.6594
X7.5984Y-6.1152
X7.6117Y-6.9158
X7.6171Y-6.3327
X7.6181Y-7.4419
X7.6368Y-6.6024
X7.6378Y-6.6594
X7.6447Y-5.7589
X7.6447Y-5.8524
X7.6447Y-5.9094
X7.6575Y-7.3544
X7.6831Y-7.2303
X7.6841Y-6.6024
X7.6841Y-6.6604
X7.752Y-7.3544
X7.7963Y-7.2008
X7.8002Y-5.126
X7.8018Y-5.2933
X7.81Y-7.3544
X7.815Y-7.247
X7.8169Y-6.5581
X7.8602Y-5.126
X7.873Y-7.0423
X7.878Y-7.1289
X7.8888Y-7.3544
X7.8917Y-5.0965
X7.8917Y-5.1565
X7.94Y-7.0787
X7.9404Y-7.0035
X7.9429Y-7.4114
X7.9488Y-6.6801
X7.9852Y-5.8809
X8.0108Y-5.0975
X8.0108Y-5.1565
X8.0197Y-6.5089
X8.0589Y-7.0848
X8.06Y-5.8809
X8.0847Y-6.9655
X8.0847Y-7.0108
X8.1024Y-5.9114
X8.1033Y-5.8484
X8.1083Y-4.7316
X8.1358Y-4.5344
X8.1368Y-4.5758
X8.1535Y-4.7244
X8.1998Y-5.8524
X8.1998Y-5.9094
X8.2067Y-7.1476
X8.2077Y-5.0089
X8.2077Y-5.0975
X8.2077Y-5.1545
X8.2087Y-6.6801
X8.2215Y-4.7925
X8.2224Y-7.185
X8.2579Y-7.4275
X8.2766Y-7.2372
X8.313Y-7.3976
X8.3229Y-7.3396
X8.3297Y-7.2697
X8.3322Y-6.6855
X8.3524Y-4.7913
X8.3612Y-6.6309
X8.3638Y-6.7461
X8.3638Y-6.7854
X8.3642Y-7.3091
X8.3714Y-7.2283
X8.3967Y-5.8514
X8.3967Y-5.9094
X8.3986Y-7.2864
X8.4055Y-7.184
X8.4208Y-6.686
X8.4242Y-6.6309
X8.4281Y-4.8278
X8.4793Y-7.3179
X8.5148Y-7.3967
X8.5492Y-5.1309
X8.5518Y-4.8337
X8.5518Y-4.9754
X8.5728Y-6.6024
X8.5728Y-6.7145
X8.5906Y-7.003
X8.6088Y-4.8927
X8.6112Y-5.1309
X8.6299Y-5.2648
X8.6427Y-5.0994
X8.6427Y-5.1614
X8.7018Y-5.3366
X8.7274Y-6.687
X8.7343Y-5.8809
X8.7579Y-5.0561
X8.7662Y-7.282
X8.7687Y-6.6024
X8.7687Y-6.6594
X8.7736Y-6.7461
X8.812Y-5.8809
X8.8234Y-5.9787
X8.8248Y-6.6024
X8.8428Y-5.9094
X8.8435Y-5.8484
X8.8819Y-7.003
X8.8878Y-6.814
X8.9045Y-7.3091
X8.9105Y-5.934
X8.9164Y-6.9813
X8.9419Y-7.06
X8.9469Y-5.7986
X8.9557Y-5.0089
X8.9557Y-5.1024
X8.9557Y-5.1594
X8.9769Y-6.9975
X8.9941Y-5.2904
X8.9989Y-5.3328
X8.999Y-5.1929
X9.0581Y-5.185
X9.0787Y-6.8907
X9.1432Y-7.2899
X9.1437Y-5.7589
X9.1437Y-5.8524
X9.1437Y-5.9094
X9.1535Y-6.0098
X9.1644Y-6.8907
X9.186Y-6.6595
X9.2283Y-6.0394
X9.25Y-7.1841
X9.2529Y-6.5946
X9.2549Y-6.8907
X9.2695Y-6.4773
X9.3189Y-6.8907
X9.3228Y-6.5486
X9.3268Y-5.2972
X9.3268Y-6.6467
X9.3396Y-7.1791
X9.3569Y-6.7033
X9.3784Y-5.0458
X9.3868Y-5.1348
X9.439Y-5.8809
X9.4537Y-5.1348
X9.4567Y-6.6467
X9.4888Y-5.6063
X9.5108Y-5.0984
X9.5157Y-5.2972
X9.5197Y-6.5089
X9.5197Y-6.5679
X9.5458Y-5.6624
X9.5571Y-6.8907
X9.5571Y-6.7352
X9.56Y-5.8809
X9.5746Y-5.1979
X9.5965Y-5.8465
X9.5965Y-5.9094
X9.623Y-6.8907
X9.6978Y-5.8504
X9.6978Y-5.9094
X9.7057Y-4.9774
X9.7077Y-5.0984
X9.7077Y-5.1555
X9.7569Y-6.7569
X9.7582Y-6.1394
X9.8012Y-7.4006
X9.811Y-6.6594
X9.8593Y-7.3435
X9.8602Y-6.6309
X9.8947Y-5.8514
X9.8947Y-5.9094
X9.9242Y-6.6309
X9.9557Y-6.5984
X9.9557Y-6.6614
X9.9843Y-7.2992
X10.0492Y-5.1329
X10.0748Y-6.6024
X10.0748Y-6.6594
X10.1132Y-5.1329
X10.1467Y-5.1014
X10.1467Y-5.1634
X10.2352Y-5.8809
X10.249Y-6.7283
X10.2598Y-5.0486
X10.2638Y-7.2598
X10.2697Y-6.6024
X10.2697Y-6.6594
X10.311Y-5.8809
X10.3396Y-5.8504
X10.3455Y-5.9094
X10.4478Y-5.7986
X10.4537Y-5.3868
X10.4567Y-5.0089
X10.4567Y-5.1024
X10.4567Y-5.1614
X10.4872Y-5.2057
X10.5867Y-5.5038
X10.6102Y-6.6309
X10.6447Y-5.7589
X10.6447Y-5.8504
X10.6447Y-5.9094
X10.6752Y-6.6309
X10.7067Y-6.6004
X10.7067Y-6.6604
X10.7156Y-6.4596
X10.7283Y-7.4006
X10.7805Y-6.4596
X10.7844Y-5.9931
X10.7854Y-7.3435
X10.8091Y-5.1329
X10.8107Y-5.2057
X10.8185Y-6.1505
X10.8189Y-6.0325
X10.8219Y-6.5571
X10.8701Y-5.1329
X10.875Y-7.2146
X10.8819Y-6.0335
X10.8976Y-5.1024
X10.8976Y-6.8789
X10.9045Y-5.1634
X10.9173Y-7.3041
X10.9328Y-6.8477
X10.9729Y-6.8883
X11.0098Y-6.9862
X11.0108Y-5.1033
X11.0108Y-5.1614
X11.0197Y-6.5089
X11.0197Y-6.6024
X11.0207Y-6.6594
X11.0337Y-6.2805
X11.0512Y-6.7697
X11.0768Y-6.6594
X11.0938Y-5.7507
X11.1093Y-5.9104
X11.1112Y-7.2333
X11.1398Y-5.7589
X11.1398Y-5.8809
X11.2057Y-4.9754
X11.2077Y-5.1024
X11.2077Y-5.1614
X11.2254Y-6.2805
X11.2264Y-5.8809
X11.247Y-5.2057
X11.247Y-6.0177
X11.2823Y-5.9392
X11.3947Y-5.8524
X11.3947Y-5.9094
X11.4496Y-6.6616
X11.5768Y-5.2953
X11.6161Y-5.0364
X11.6358Y-5.1368
X11.6476Y-6.0482
X11.6748Y-6.2563
X11.6998Y-5.1368
X11.7092Y-6.4778
X11.7608Y-5.0486
X11.7657Y-6.5738
X11.7657Y-6.6467
X11.8553Y-6.6024
X11.877Y-6.7126
X11.9449Y-7.4006
X11.9488Y-7.3425
X11.9577Y-5.0089
X11.9577Y-5.0965
X11.9577Y-5.1535
X12.003Y-7.3435
X12.0207Y-7.2087
X12.0955Y-7.2087
X12.1201Y-6.751
X12.1358Y-7.2986
X12.185Y-5.3465
X12.19Y-6.876
X12.2018Y-6.7205
X12.2047Y-5.8799
X12.2073Y-5.5984
X12.2343Y-6.6821
X12.2382Y-5.249
X12.2464Y-7.0036
X12.2574Y-6.7761
X12.2644Y-5.6526
X12.2677Y-5.8799
X12.2854Y-6.6329
X12.3002Y-5.8504
X12.3005Y-5.9084
X12.3327Y-6.6821
X12.3534Y-6.1112
X12.374Y-6.6329
X12.3848Y-5.809
X12.3897Y-7.3435
X12.4144Y-6.6044
X12.4144Y-6.6614
X12.4557Y-6.6024
X12.4557Y-6.6614
X12.4734Y-6.8345
X12.502Y-6.6024
X12.5384Y-7.1447
X12.5531Y-6.9744
X12.5669Y-5.1663
X12.5871Y-5.033
X12.6004Y-5.1319
X12.6102Y-6.9751
X12.6122Y-5.9084
X12.6132Y-5.7589
X12.6132Y-5.8514
X12.6516Y-5.9084
X12.6722Y-6.6329
X12.6752Y-6.8346
X12.6836Y-5.2101
X12.686Y-5.1319
X12.6988Y-7.4006
X12.7053Y-7.0073
X12.7096Y-5.0975
X12.7175Y-5.251
X12.7382Y-6.6329
X12.7559Y-7.3435
X12.7623Y-5.2082
X12.7695Y-6.6614
X12.7697Y-6.6044
X12.813Y-5.8799
X12.8858Y-6.6024
X12.8858Y-6.6634
X12.8858Y-7.3366
X12.8947Y-5.1545
X12.8957Y-5.0089
X12.8957Y-5.0975
X12.9173Y-5.3622
X12.9173Y-5.8273
X12.9921Y-6.128
X12.9942Y-6.2283
X12.9961Y-5.4006
X13.0576Y-5.9309
X13.0753Y-5.8194
X13.0827Y-6.6004
X13.0827Y-6.6614
X13.1476Y-7.3337
X13.1663Y-6.0699
X13.1673Y-5.9094
X13.2126Y-5.9085
X13.2362Y-6.0649
X13.2648Y-6.6467
X13.3169Y-5.8799
X13.3228Y-5.2323
X13.3307Y-5.1339
X13.3782Y-6.3359
X13.3789Y-5.9892
X13.3799Y-5.8799
X13.3907Y-5.2323
X13.3952Y-5.1338
X13.4104Y-6.0709
X13.4193Y-5.8514
X13.4193Y-6.2126
X13.4203Y-5.9084
X13.4301Y-7.2569
X13.4528Y-7.4006
X13.4537Y-5.2963
X13.4606Y-7.3406
X13.4892Y-7.2254
X13.5108Y-7.3435
X13.5197Y-5.0975
X13.5197Y-5.1929
X13.5408Y-6.0709
X13.5408Y-6.2136
X13.5914Y-7.306
X13.5915Y-5.0955
X13.6034Y-7.2106
X13.6358Y-5.7986
X13.6452Y-6.0699
X13.689Y-6.8287
X13.8317Y-7.2313
X13.8327Y-5.0945
X13.8327Y-5.1545
X13.8327Y-5.7589
X13.8337Y-5.8514
X13.8337Y-5.9084
X13.8711Y-5.0079
X13.9065Y-6.735
X13.9163Y-6.6732
X13.9291Y-5.7579
X14.0286Y-6.3652
T2
G00X7.9362Y-4.2569
M15
G01X7.9362Y-4.2805
M16
G05
G00X7.9362Y-4.4116
M15
G01X7.9362Y-4.4549
M16
G05
G00X8.2764Y-4.2569
M15
G01X8.2764Y-4.2805
M16
G05
G00X8.2764Y-4.4116
M15
G01X8.2764Y-4.4549
M16
G05
T0
M30
