%TF.GenerationSoftware,KiCad,Pcbnew,(6.0.9)*%
%TF.CreationDate,2022-12-31T14:12:08+09:00*%
%TF.ProjectId,chasma,63686173-6d61-42e6-9b69-6361645f7063,rev?*%
%TF.SameCoordinates,Original*%
%TF.FileFunction,Profile,NP*%
%FSLAX46Y46*%
G04 Gerber Fmt 4.6, Leading zero omitted, Abs format (unit mm)*
G04 Created by KiCad (PCBNEW (6.0.9)) date 2022-12-31 14:12:08*
%MOMM*%
%LPD*%
G01*
G04 APERTURE LIST*
%TA.AperFunction,Profile*%
%ADD10C,0.200000*%
%TD*%
G04 APERTURE END LIST*
D10*
X210423328Y-106950668D02*
X210610965Y-107008953D01*
X210780734Y-107101172D01*
X210928607Y-107223299D01*
X211050586Y-107371307D01*
X211142688Y-107541169D01*
X211200794Y-107728857D01*
X211220889Y-107930345D01*
X211220264Y-108545302D01*
X211219638Y-109160259D01*
X211219013Y-109775217D01*
X211217136Y-111620090D01*
X211216510Y-112235048D01*
X211215885Y-112850006D01*
X211235980Y-113051493D01*
X211294086Y-113239181D01*
X211386188Y-113409041D01*
X211508151Y-113557048D01*
X211656040Y-113679175D01*
X211825809Y-113771393D01*
X212013431Y-113829677D01*
X212214817Y-113849999D01*
X230347507Y-113849894D01*
X266612857Y-113849684D01*
X284745548Y-113849579D01*
X302878223Y-113849475D01*
X321010898Y-113849370D01*
X357276279Y-113849160D01*
X357477817Y-113869475D01*
X357665531Y-113927743D01*
X357835391Y-114019941D01*
X357983402Y-114142049D01*
X358105503Y-114290045D01*
X358197696Y-114459909D01*
X358255985Y-114647619D01*
X358276279Y-114849153D01*
X358276279Y-189024350D01*
X358255985Y-189225888D01*
X358197696Y-189413601D01*
X358105503Y-189583470D01*
X357983402Y-189731465D01*
X357835391Y-189853573D01*
X357665531Y-189945775D01*
X357477817Y-190004048D01*
X357276279Y-190024365D01*
X54513962Y-190024365D01*
X54312427Y-190004033D01*
X54124717Y-189945759D01*
X53954853Y-189853558D01*
X53806855Y-189731450D01*
X53684746Y-189583455D01*
X53592547Y-189413586D01*
X53534278Y-189225880D01*
X53513962Y-189024342D01*
X53513962Y-114849155D01*
X53534278Y-114647620D01*
X53592547Y-114459910D01*
X53684747Y-114290047D01*
X53806856Y-114142050D01*
X53954853Y-114019942D01*
X54124717Y-113927744D01*
X54312427Y-113869476D01*
X54513962Y-113849161D01*
X90779224Y-113849371D01*
X108911853Y-113849475D01*
X127044483Y-113849581D01*
X145177112Y-113849685D01*
X199575000Y-113850000D01*
X199776599Y-113829691D01*
X199964405Y-113771440D01*
X200134357Y-113679262D01*
X200282474Y-113557172D01*
X200404712Y-113409187D01*
X200497012Y-113239320D01*
X200555408Y-113051588D01*
X200575900Y-112850007D01*
X200577152Y-111620091D01*
X200577777Y-111005133D01*
X200580280Y-108545303D01*
X200580905Y-107930345D01*
X200601398Y-107728763D01*
X200659793Y-107541031D01*
X200752201Y-107371164D01*
X200874439Y-107223177D01*
X201022556Y-107101087D01*
X201192508Y-107008908D01*
X201380298Y-106950655D01*
X201582019Y-106930345D01*
X210221851Y-106930345D01*
X210423328Y-106950668D01*
%TO.C,LED02_01*%
X113875000Y-145600000D02*
X117075000Y-145600000D01*
X117075000Y-148400000D02*
X113875000Y-148400000D01*
X113875000Y-148400000D02*
X113875000Y-145600000D01*
X117075000Y-145600000D02*
X117075000Y-148400000D01*
%TO.C,LED08_01*%
X231350000Y-148425000D02*
X228150000Y-148425000D01*
X228150000Y-145625000D02*
X231350000Y-145625000D01*
X228150000Y-148425000D02*
X228150000Y-145625000D01*
X231350000Y-145625000D02*
X231350000Y-148425000D01*
%TO.C,LED13_02*%
X328200000Y-167475000D02*
X328200000Y-164675000D01*
X328200000Y-164675000D02*
X331400000Y-164675000D01*
X331400000Y-164675000D02*
X331400000Y-167475000D01*
X331400000Y-167475000D02*
X328200000Y-167475000D01*
%TO.C,LED04_00*%
X147225000Y-126550000D02*
X150425000Y-126550000D01*
X150425000Y-126550000D02*
X150425000Y-129350000D01*
X150425000Y-129350000D02*
X147225000Y-129350000D01*
X147225000Y-129350000D02*
X147225000Y-126550000D01*
%TO.C,LED11_02*%
X302025000Y-167475000D02*
X302025000Y-164675000D01*
X305225000Y-164675000D02*
X305225000Y-167475000D01*
X305225000Y-167475000D02*
X302025000Y-167475000D01*
X302025000Y-164675000D02*
X305225000Y-164675000D01*
%TO.C,LED03_03*%
X148025000Y-183725000D02*
X148025000Y-186525000D01*
X144825000Y-186525000D02*
X144825000Y-183725000D01*
X148025000Y-186525000D02*
X144825000Y-186525000D01*
X144825000Y-183725000D02*
X148025000Y-183725000D01*
%TO.C,LED09_00*%
X245675000Y-126575000D02*
X245675000Y-129375000D01*
X242475000Y-126575000D02*
X245675000Y-126575000D01*
X242475000Y-129375000D02*
X242475000Y-126575000D01*
X245675000Y-129375000D02*
X242475000Y-129375000D01*
%TO.C,LED06_00*%
X188525000Y-126550000D02*
X188525000Y-129350000D01*
X188525000Y-129350000D02*
X185325000Y-129350000D01*
X185325000Y-129350000D02*
X185325000Y-126550000D01*
X185325000Y-126550000D02*
X188525000Y-126550000D01*
%TO.C,LED14_01*%
X350450000Y-148425000D02*
X347250000Y-148425000D01*
X347250000Y-148425000D02*
X347250000Y-145625000D01*
X350450000Y-145625000D02*
X350450000Y-148425000D01*
X347250000Y-145625000D02*
X350450000Y-145625000D01*
%TO.C,LED13_00*%
X326650000Y-129375000D02*
X323450000Y-129375000D01*
X323450000Y-126575000D02*
X326650000Y-126575000D01*
X323450000Y-129375000D02*
X323450000Y-126575000D01*
X326650000Y-126575000D02*
X326650000Y-129375000D01*
%TO.C,LED01_00*%
X93275000Y-129350000D02*
X90075000Y-129350000D01*
X93275000Y-126550000D02*
X93275000Y-129350000D01*
X90075000Y-126550000D02*
X93275000Y-126550000D01*
X90075000Y-129350000D02*
X90075000Y-126550000D01*
%TO.C,LED10_02*%
X279000000Y-164675000D02*
X279000000Y-167475000D01*
X279000000Y-167475000D02*
X275800000Y-167475000D01*
X275800000Y-164675000D02*
X279000000Y-164675000D01*
X275800000Y-167475000D02*
X275800000Y-164675000D01*
%TO.C,LED12_01*%
X316275000Y-148425000D02*
X316275000Y-145625000D01*
X316275000Y-145625000D02*
X319475000Y-145625000D01*
X319475000Y-145625000D02*
X319475000Y-148425000D01*
X319475000Y-148425000D02*
X316275000Y-148425000D01*
%TO.C,LED11_00*%
X283775000Y-126575000D02*
X283775000Y-129375000D01*
X283775000Y-129375000D02*
X280575000Y-129375000D01*
X280575000Y-129375000D02*
X280575000Y-126575000D01*
X280575000Y-126575000D02*
X283775000Y-126575000D01*
%TO.C,LED09_01*%
X250425000Y-145625000D02*
X250425000Y-148425000D01*
X247225000Y-148425000D02*
X247225000Y-145625000D01*
X250425000Y-148425000D02*
X247225000Y-148425000D01*
X247225000Y-145625000D02*
X250425000Y-145625000D01*
%TO.C,LED02_02*%
X123425000Y-164675000D02*
X126625000Y-164675000D01*
X126625000Y-167475000D02*
X123425000Y-167475000D01*
X126625000Y-164675000D02*
X126625000Y-167475000D01*
X123425000Y-167475000D02*
X123425000Y-164675000D01*
%TO.C,LED07_01*%
X209175000Y-145625000D02*
X212375000Y-145625000D01*
X209175000Y-148425000D02*
X209175000Y-145625000D01*
X212375000Y-145625000D02*
X212375000Y-148425000D01*
X212375000Y-148425000D02*
X209175000Y-148425000D01*
%TO.C,LED00_00*%
X66275000Y-126575000D02*
X69475000Y-126575000D01*
X66275000Y-129375000D02*
X66275000Y-126575000D01*
X69475000Y-126575000D02*
X69475000Y-129375000D01*
X69475000Y-129375000D02*
X66275000Y-129375000D01*
%TO.C,LED10_00*%
X261500000Y-129375000D02*
X261500000Y-126575000D01*
X264700000Y-126575000D02*
X264700000Y-129375000D01*
X264700000Y-129375000D02*
X261500000Y-129375000D01*
X261500000Y-126575000D02*
X264700000Y-126575000D01*
%TO.C,LED02_03*%
X111500000Y-183725000D02*
X114700000Y-183725000D01*
X111500000Y-186525000D02*
X111500000Y-183725000D01*
X114700000Y-186525000D02*
X111500000Y-186525000D01*
X114700000Y-183725000D02*
X114700000Y-186525000D01*
%TO.C,LED05_03*%
X178225000Y-183725000D02*
X181425000Y-183725000D01*
X181425000Y-186525000D02*
X178225000Y-186525000D01*
X181425000Y-183725000D02*
X181425000Y-186525000D01*
X178225000Y-186525000D02*
X178225000Y-183725000D01*
%TO.C,LED10_01*%
X266275000Y-145625000D02*
X269475000Y-145625000D01*
X266275000Y-148425000D02*
X266275000Y-145625000D01*
X269475000Y-145625000D02*
X269475000Y-148425000D01*
X269475000Y-148425000D02*
X266275000Y-148425000D01*
%TO.C,LED00_01*%
X71850000Y-148425000D02*
X68650000Y-148425000D01*
X68650000Y-148425000D02*
X68650000Y-145625000D01*
X71850000Y-145625000D02*
X71850000Y-148425000D01*
X68650000Y-145625000D02*
X71850000Y-145625000D01*
%TO.C,LED09_03*%
X257575000Y-186525000D02*
X254375000Y-186525000D01*
X254375000Y-186525000D02*
X254375000Y-183725000D01*
X257575000Y-183725000D02*
X257575000Y-186525000D01*
X254375000Y-183725000D02*
X257575000Y-183725000D01*
%TO.C,LED04_01*%
X155200000Y-145625000D02*
X155200000Y-148425000D01*
X152000000Y-148425000D02*
X152000000Y-145625000D01*
X155200000Y-148425000D02*
X152000000Y-148425000D01*
X152000000Y-145625000D02*
X155200000Y-145625000D01*
%TO.C,LED01_02*%
X104350000Y-164675000D02*
X107550000Y-164675000D01*
X104350000Y-167475000D02*
X104350000Y-164675000D01*
X107550000Y-164675000D02*
X107550000Y-167475000D01*
X107550000Y-167475000D02*
X104350000Y-167475000D01*
%TO.C,LED05_02*%
X183750000Y-167475000D02*
X180550000Y-167475000D01*
X183750000Y-164675000D02*
X183750000Y-167475000D01*
X180550000Y-164675000D02*
X183750000Y-164675000D01*
X180550000Y-167475000D02*
X180550000Y-164675000D01*
%TO.C,LED03_00*%
X128175000Y-129375000D02*
X128175000Y-126575000D01*
X131375000Y-129375000D02*
X128175000Y-129375000D01*
X131375000Y-126575000D02*
X131375000Y-129375000D01*
X128175000Y-126575000D02*
X131375000Y-126575000D01*
%TO.C,LED02_00*%
X112325000Y-129375000D02*
X109125000Y-129375000D01*
X109125000Y-126575000D02*
X112325000Y-126575000D01*
X112325000Y-126575000D02*
X112325000Y-129375000D01*
X109125000Y-129375000D02*
X109125000Y-126575000D01*
%TO.C,LED03_01*%
X132925000Y-145625000D02*
X136125000Y-145625000D01*
X132925000Y-148425000D02*
X132925000Y-145625000D01*
X136125000Y-148425000D02*
X132925000Y-148425000D01*
X136125000Y-145625000D02*
X136125000Y-148425000D01*
%TO.C,LED04_02*%
X164690000Y-164675000D02*
X164690000Y-167475000D01*
X161490000Y-167475000D02*
X161490000Y-164675000D01*
X161490000Y-164675000D02*
X164690000Y-164675000D01*
X164690000Y-167475000D02*
X161490000Y-167475000D01*
%TO.C,LED10_03*%
X278200000Y-186525000D02*
X278200000Y-183725000D01*
X281400000Y-183725000D02*
X281400000Y-186525000D01*
X281400000Y-186525000D02*
X278200000Y-186525000D01*
X278200000Y-183725000D02*
X281400000Y-183725000D01*
%TO.C,LED05_01*%
X174225000Y-145625000D02*
X174225000Y-148425000D01*
X171025000Y-148425000D02*
X171025000Y-145625000D01*
X174225000Y-148425000D02*
X171025000Y-148425000D01*
X171025000Y-145625000D02*
X174225000Y-145625000D01*
%TO.C,LED06_02*%
X202800000Y-164675000D02*
X202800000Y-167475000D01*
X202800000Y-167475000D02*
X199600000Y-167475000D01*
X199600000Y-167475000D02*
X199600000Y-164675000D01*
X199600000Y-164675000D02*
X202800000Y-164675000D01*
%TO.C,LED13_03*%
X331400000Y-183725000D02*
X331400000Y-186525000D01*
X328200000Y-186525000D02*
X328200000Y-183725000D01*
X331400000Y-186525000D02*
X328200000Y-186525000D01*
X328200000Y-183725000D02*
X331400000Y-183725000D01*
%TO.C,LED11_01*%
X288525000Y-148425000D02*
X285325000Y-148425000D01*
X288525000Y-145625000D02*
X288525000Y-148425000D01*
X285325000Y-145625000D02*
X288525000Y-145625000D01*
X285325000Y-148425000D02*
X285325000Y-145625000D01*
%TO.C,LED03_02*%
X142440000Y-167475000D02*
X142440000Y-164675000D01*
X145640000Y-167475000D02*
X142440000Y-167475000D01*
X142440000Y-164675000D02*
X145640000Y-164675000D01*
X145640000Y-164675000D02*
X145640000Y-167475000D01*
%TO.C,LED14_03*%
X350400000Y-183700000D02*
X350400000Y-186500000D01*
X347200000Y-186500000D02*
X347200000Y-183700000D01*
X347200000Y-183700000D02*
X350400000Y-183700000D01*
X350400000Y-186500000D02*
X347200000Y-186500000D01*
%TO.C,LED08_00*%
X226575000Y-129375000D02*
X223375000Y-129375000D01*
X223375000Y-126575000D02*
X226575000Y-126575000D01*
X226575000Y-126575000D02*
X226575000Y-129375000D01*
X223375000Y-129375000D02*
X223375000Y-126575000D01*
%TO.C,LED14_00*%
X347250000Y-129375000D02*
X347250000Y-126575000D01*
X350450000Y-129375000D02*
X347250000Y-129375000D01*
X350450000Y-126575000D02*
X350450000Y-129375000D01*
X347250000Y-126575000D02*
X350450000Y-126575000D01*
%TO.C,LED05_00*%
X169450000Y-129375000D02*
X166250000Y-129375000D01*
X166250000Y-126575000D02*
X169450000Y-126575000D01*
X166250000Y-129375000D02*
X166250000Y-126575000D01*
X169450000Y-126575000D02*
X169450000Y-129375000D01*
%TO.C,LED00_02*%
X73350000Y-164675000D02*
X76550000Y-164675000D01*
X76550000Y-164675000D02*
X76550000Y-167475000D01*
X76550000Y-167475000D02*
X73350000Y-167475000D01*
X73350000Y-167475000D02*
X73350000Y-164675000D01*
%TO.C,LED12_03*%
X309150000Y-183725000D02*
X312350000Y-183725000D01*
X309150000Y-186525000D02*
X309150000Y-183725000D01*
X312350000Y-186525000D02*
X309150000Y-186525000D01*
X312350000Y-183725000D02*
X312350000Y-186525000D01*
%TO.C,LED08_02*%
X240900000Y-167475000D02*
X237700000Y-167475000D01*
X240900000Y-164675000D02*
X240900000Y-167475000D01*
X237700000Y-164675000D02*
X240900000Y-164675000D01*
X237700000Y-167475000D02*
X237700000Y-164675000D01*
%TO.C,LED07_02*%
X218650000Y-167475000D02*
X218650000Y-164675000D01*
X221850000Y-164675000D02*
X221850000Y-167475000D01*
X218650000Y-164675000D02*
X221850000Y-164675000D01*
X221850000Y-167475000D02*
X218650000Y-167475000D01*
%TO.C,LED12_00*%
X299625000Y-129375000D02*
X299625000Y-126575000D01*
X302825000Y-126575000D02*
X302825000Y-129375000D01*
X302825000Y-129375000D02*
X299625000Y-129375000D01*
X299625000Y-126575000D02*
X302825000Y-126575000D01*
%TO.C,LED09_02*%
X259950000Y-164675000D02*
X259950000Y-167475000D01*
X256750000Y-167475000D02*
X256750000Y-164675000D01*
X256750000Y-164675000D02*
X259950000Y-164675000D01*
X259950000Y-167475000D02*
X256750000Y-167475000D01*
%TO.C,LED01_03*%
X90890000Y-186525000D02*
X87690000Y-186525000D01*
X87690000Y-183725000D02*
X90890000Y-183725000D01*
X87690000Y-186525000D02*
X87690000Y-183725000D01*
X90890000Y-183725000D02*
X90890000Y-186525000D01*
%TO.C,LED00_03*%
X63875000Y-186525000D02*
X63875000Y-183725000D01*
X67075000Y-183725000D02*
X67075000Y-186525000D01*
X67075000Y-186525000D02*
X63875000Y-186525000D01*
X63875000Y-183725000D02*
X67075000Y-183725000D01*
%TO.C,LED07_00*%
X207575000Y-126575000D02*
X207575000Y-129375000D01*
X207575000Y-129375000D02*
X204375000Y-129375000D01*
X204375000Y-129375000D02*
X204375000Y-126575000D01*
X204375000Y-126575000D02*
X207575000Y-126575000D01*
%TO.C,LED01_01*%
X94825000Y-148425000D02*
X94825000Y-145625000D01*
X98025000Y-145625000D02*
X98025000Y-148425000D01*
X98025000Y-148425000D02*
X94825000Y-148425000D01*
X94825000Y-145625000D02*
X98025000Y-145625000D01*
%TO.C,LED07_03*%
X216275000Y-186525000D02*
X216275000Y-183725000D01*
X219475000Y-183725000D02*
X219475000Y-186525000D01*
X216275000Y-183725000D02*
X219475000Y-183725000D01*
X219475000Y-186525000D02*
X216275000Y-186525000D01*
%TO.C,LED06_01*%
X193275000Y-148425000D02*
X190075000Y-148425000D01*
X190075000Y-148425000D02*
X190075000Y-145625000D01*
X193275000Y-145625000D02*
X193275000Y-148425000D01*
X190075000Y-145625000D02*
X193275000Y-145625000D01*
%TD*%
M02*
