M48
; DRILL file {KiCad (6.0.5)} date Wed Jan 25 17:17:34 2023
; FORMAT={-:-/ absolute / inch / decimal}
; #@! TF.CreationDate,2023-01-25T17:17:34+09:00
; #@! TF.GenerationSoftware,Kicad,Pcbnew,(6.0.5)
; #@! TF.FileFunction,NonPlated,1,2,NPTH
FMAT,2
INCH
; #@! TA.AperFunction,NonPlated,NPTH,ComponentDrill
T1C0.0256
; #@! TA.AperFunction,NonPlated,NPTH,ComponentDrill
T2C0.0689
; #@! TA.AperFunction,NonPlated,NPTH,ComponentDrill
T3C0.1181
; #@! TA.AperFunction,NonPlated,NPTH,ComponentDrill
T4C0.1200
; #@! TA.AperFunction,NonPlated,NPTH,ComponentDrill
T5C0.1570
%
G90
G05
T1
X7.9925Y-4.4124
X8.2201Y-4.4124
T2
X2.3778Y-7.1073
X2.4722Y-4.8583
X2.5657Y-5.6083
X2.7508Y-6.3593
X2.7778Y-7.1073
X2.8722Y-4.8583
X2.9657Y-5.6083
X3.1508Y-6.3593
X3.3152Y-7.1079
X3.4093Y-4.8573
X3.5963Y-5.6073
X3.7152Y-7.1079
X3.8093Y-4.8573
X3.9713Y-6.3573
X3.9963Y-5.6073
X4.1593Y-4.8573
X4.2528Y-7.1083
X4.3463Y-5.6063
X4.3713Y-6.3573
X4.5593Y-4.8573
X4.6528Y-7.1083
X4.7213Y-6.3553
X4.7463Y-5.6063
X4.9093Y-4.8573
X5.0963Y-5.6063
X5.1213Y-6.3553
X5.3093Y-4.8573
X5.4713Y-6.3573
X5.4963Y-5.6063
X5.5648Y-7.1073
X5.6593Y-4.8573
X5.8472Y-5.6073
X5.8713Y-6.3573
X5.9648Y-7.1073
X6.0593Y-4.8573
X6.2213Y-6.3573
X6.2472Y-5.6073
X6.4083Y-4.8573
X6.5963Y-5.6073
X6.6213Y-6.3573
X6.8083Y-4.8573
X6.8797Y-7.1063
X6.9713Y-6.3573
X6.9963Y-5.6073
X7.1593Y-4.8573
X7.2797Y-7.1063
X7.3463Y-5.6073
X7.3713Y-6.3573
X7.5593Y-4.8573
X7.7213Y-6.3583
X7.7463Y-5.6073
X7.9093Y-4.8573
X8.0972Y-5.6073
X8.1213Y-6.3583
X8.3093Y-4.8573
X8.3778Y-7.1063
X8.4713Y-6.3573
X8.4972Y-5.6073
X8.6593Y-4.8573
X8.7778Y-7.1063
X8.8463Y-5.6073
X8.8713Y-6.3573
X9.0593Y-4.8573
X9.2213Y-6.3573
X9.2463Y-5.6073
X9.4093Y-4.8573
X9.5963Y-5.6073
X9.6213Y-6.3573
X9.8093Y-4.8573
X9.8778Y-7.1053
X9.9713Y-6.3573
X9.9963Y-5.6073
X10.1583Y-4.8573
X10.2778Y-7.1053
X10.3463Y-5.6073
X10.3713Y-6.3573
X10.5583Y-4.8573
X10.7213Y-6.3573
X10.7463Y-5.6073
X10.8157Y-7.1073
X10.9093Y-4.8573
X11.0963Y-5.6073
X11.1213Y-6.3573
X11.2157Y-7.1073
X11.3093Y-4.8573
X11.4963Y-5.6073
X11.6593Y-4.8553
X11.7537Y-6.3563
X12.0343Y-7.1073
X12.0593Y-4.8553
X12.1537Y-6.3563
X12.3148Y-5.6063
X12.4343Y-7.1073
X12.5972Y-4.8573
X12.7148Y-5.6063
X12.7843Y-6.3573
X12.7843Y-7.1073
X12.9972Y-4.8573
X13.1843Y-6.3573
X13.1843Y-7.1073
X13.5333Y-7.1073
X13.5343Y-4.8563
X13.5343Y-5.6073
X13.9333Y-7.1073
X13.9343Y-4.8563
X13.9343Y-5.6073
T3
X2.4278Y-7.0073
X2.5222Y-4.7583
X2.6157Y-5.5083
X2.6778Y-6.9073
X2.7722Y-4.6583
X2.8008Y-6.2593
X2.8657Y-5.4083
X3.0508Y-6.1593
X3.3652Y-7.0079
X3.4593Y-4.7573
X3.6152Y-6.9079
X3.6463Y-5.5073
X3.7093Y-4.6573
X3.8963Y-5.4073
X4.0213Y-6.2573
X4.2093Y-4.7573
X4.2713Y-6.1573
X4.3028Y-7.0083
X4.3963Y-5.5063
X4.4593Y-4.6573
X4.5528Y-6.9083
X4.6463Y-5.4063
X4.7713Y-6.2553
X4.9593Y-4.7573
X5.0213Y-6.1553
X5.1463Y-5.5063
X5.2093Y-4.6573
X5.3963Y-5.4063
X5.5213Y-6.2573
X5.6148Y-7.0073
X5.7093Y-4.7573
X5.7713Y-6.1573
X5.8648Y-6.9073
X5.8972Y-5.5073
X5.9593Y-4.6573
X6.1472Y-5.4073
X6.2713Y-6.2573
X6.4583Y-4.7573
X6.5213Y-6.1573
X6.6463Y-5.5073
X6.7083Y-4.6573
X6.8963Y-5.4073
X6.9297Y-7.0063
X7.0213Y-6.2573
X7.1797Y-6.9063
X7.2093Y-4.7573
X7.2713Y-6.1573
X7.3963Y-5.5073
X7.4593Y-4.6573
X7.6463Y-5.4073
X7.7713Y-6.2583
X7.9593Y-4.7573
X8.0213Y-6.1583
X8.1472Y-5.5073
X8.2093Y-4.6573
X8.3972Y-5.4073
X8.4278Y-7.0063
X8.5213Y-6.2573
X8.6778Y-6.9063
X8.7093Y-4.7573
X8.7713Y-6.1573
X8.8963Y-5.5073
X8.9593Y-4.6573
X9.1463Y-5.4073
X9.2713Y-6.2573
X9.4593Y-4.7573
X9.5213Y-6.1573
X9.6463Y-5.5073
X9.7093Y-4.6573
X9.8963Y-5.4073
X9.9278Y-7.0053
X10.0213Y-6.2573
X10.1778Y-6.9053
X10.2083Y-4.7573
X10.2713Y-6.1573
X10.3963Y-5.5073
X10.4583Y-4.6573
X10.6463Y-5.4073
X10.7713Y-6.2573
X10.8657Y-7.0073
X10.9593Y-4.7573
X11.0213Y-6.1573
X11.1157Y-6.9073
X11.1463Y-5.5073
X11.2093Y-4.6573
X11.3963Y-5.4073
X11.7093Y-4.7553
X11.8037Y-6.2563
X11.9593Y-4.6553
X12.0537Y-6.1563
X12.0843Y-7.0073
X12.3343Y-6.9073
X12.3648Y-5.5063
X12.6148Y-5.4063
X12.6472Y-4.7573
X12.8343Y-6.2573
X12.8343Y-7.0073
X12.8972Y-4.6573
X13.0843Y-6.1573
X13.0843Y-6.9073
X13.5833Y-7.0073
X13.5843Y-4.7563
X13.5843Y-5.5073
X13.8333Y-6.9073
X13.8343Y-4.6563
X13.8343Y-5.4073
T4
X2.4808Y-6.0843
X3.4208Y-6.0843
X5.2948Y-7.3823
X6.2348Y-7.3823
X8.1078Y-7.3813
X9.0478Y-7.3813
X12.0448Y-5.8813
X12.9848Y-5.8813
T5
X2.4808Y-6.6843
X2.5778Y-7.1073
X2.6722Y-4.8583
X2.7657Y-5.6083
X2.9508Y-6.3593
X3.4208Y-6.6843
X3.5152Y-7.1079
X3.6093Y-4.8573
X3.7963Y-5.6073
X4.1713Y-6.3573
X4.3593Y-4.8573
X4.4528Y-7.1083
X4.5463Y-5.6063
X4.9213Y-6.3553
X5.1093Y-4.8573
X5.2948Y-6.7823
X5.2963Y-5.6063
X5.6713Y-6.3573
X5.7648Y-7.1073
X5.8593Y-4.8573
X6.0472Y-5.6073
X6.2348Y-6.7823
X6.4213Y-6.3573
X6.6083Y-4.8573
X6.7963Y-5.6073
X7.0797Y-7.1063
X7.1713Y-6.3573
X7.3593Y-4.8573
X7.5463Y-5.6073
X7.9213Y-6.3583
X8.1078Y-6.7813
X8.1093Y-4.8573
X8.2972Y-5.6073
X8.5778Y-7.1063
X8.6713Y-6.3573
X8.8593Y-4.8573
X9.0463Y-5.6073
X9.0478Y-6.7813
X9.4213Y-6.3573
X9.6093Y-4.8573
X9.7963Y-5.6073
X10.0778Y-7.1053
X10.1713Y-6.3573
X10.3583Y-4.8573
X10.5463Y-5.6073
X10.9213Y-6.3573
X11.0157Y-7.1073
X11.1093Y-4.8573
X11.2963Y-5.6073
X11.8593Y-4.8553
X11.9537Y-6.3563
X12.0448Y-5.2813
X12.2343Y-7.1073
X12.5148Y-5.6063
X12.7972Y-4.8573
X12.9843Y-6.3573
X12.9843Y-7.1073
X12.9848Y-5.2813
X13.7333Y-7.1073
X13.7343Y-4.8563
X13.7343Y-5.6073
T0
M30
