M48
; DRILL file {KiCad (6.0.5)} date Wed Jan 25 17:17:34 2023
; FORMAT={-:-/ absolute / inch / decimal}
; #@! TF.CreationDate,2023-01-25T17:17:34+09:00
; #@! TF.GenerationSoftware,Kicad,Pcbnew,(6.0.5)
; #@! TF.FileFunction,Plated,1,2,PTH
FMAT,2
INCH
; #@! TA.AperFunction,Plated,PTH,ViaDrill
T1C0.0157
; #@! TA.AperFunction,Plated,PTH,ComponentDrill
T2C0.0236
%
G90
G05
T1
X2.2992Y-7.4311
X2.5197Y-5.0669
X2.5217Y-4.9675
X2.6158Y-5.7254
X2.6181Y-5.8179
X2.7293Y-7.2815
X2.7451Y-7.3888
X2.813Y-6.5807
X2.8425Y-5.1801
X2.8435Y-5.2854
X2.8976Y-7.3159
X2.9104Y-5.7638
X2.9193Y-5.8563
X2.9213Y-5.9173
X2.9695Y-7.3878
X2.9862Y-6.6398
X3.1102Y-5.1801
X3.1329Y-6.6723
X3.1329Y-6.747
X3.2362Y-7.185
X3.3018Y-4.9685
X3.3018Y-5.1112
X3.311Y-5.3189
X3.3307Y-5.1801
X3.3588Y-4.9685
X3.3652Y-7.3189
X3.373Y-5.2894
X3.4311Y-5.1594
X3.4537Y-5.8563
X3.4852Y-5.2539
X3.4911Y-6.815
X3.5167Y-5.8563
X3.56Y-5.1801
X3.5778Y-6.7736
X3.5896Y-5.9872
X3.6201Y-6.6743
X3.6378Y-6.6162
X3.6644Y-5.2844
X3.6683Y-7.188
X3.6683Y-7.251
X3.6978Y-5.8563
X3.7161Y-6.6186
X3.748Y-5.9852
X3.8081Y-7.3878
X3.8278Y-5.1102
X3.8711Y-7.3248
X3.8947Y-5.8563
X3.9203Y-5.9547
X3.9518Y-6.0157
X3.9518Y-6.6201
X4.0512Y-5.1112
X4.0719Y-6.7569
X4.0728Y-6.6743
X4.0807Y-5.1791
X4.1024Y-5.8563
X4.1181Y-5.2844
X4.1673Y-5.1801
X4.1978Y-5.0561
X4.2047Y-5.2539
X4.2677Y-5.8563
X4.2697Y-6.6742
X4.2766Y-7.2825
X4.2982Y-6.7352
X4.3002Y-6.6201
X4.3051Y-7.1585
X4.3927Y-5.8159
X4.3967Y-5.9852
X4.4606Y-6.0157
X4.4882Y-5.1093
X4.5Y-5.1663
X4.5325Y-6.7815
X4.5384Y-5.0295
X4.6102Y-7.3258
X4.6138Y-6.6201
X4.6427Y-6.6722
X4.6447Y-5.8563
X4.6732Y-5.9547
X4.6791Y-6.815
X4.7126Y-6.0157
X4.7146Y-6.7667
X4.7333Y-6.6486
X4.7415Y-6.5526
X4.7618Y-7.3878
X4.7657Y-6.7569
X4.7697Y-6.6743
X4.7717Y-6.5779
X4.7874Y-7.3268
X4.8018Y-5.0709
X4.8071Y-6.4646
X4.8317Y-5.1063
X4.8691Y-5.2539
X4.872Y-5.8563
X4.8858Y-5.3051
X4.9203Y-5.1801
X4.9203Y-5.8563
X5.0256Y-6.8258
X5.065Y-5.8563
X5.1201Y-7.4055
X5.1211Y-5.1801
X5.124Y-6.7647
X5.1662Y-6.0141
X5.1742Y-6.6044
X5.1752Y-6.686
X5.189Y-6.7805
X5.1929Y-5.9852
X5.194Y-7.3878
X5.2067Y-5.8563
X5.2215Y-4.9606
X5.2254Y-7.4331
X5.2382Y-5.1358
X5.3189Y-6.6349
X5.3346Y-5.9852
X5.3533Y-6.6024
X5.3642Y-7.4331
X5.3799Y-6.6959
X5.3947Y-5.8563
X5.3957Y-5.7146
X5.4016Y-7.3907
X5.4183Y-6.6349
X5.4222Y-5.9547
X5.4528Y-6.7175
X5.5305Y-6.6319
X5.5341Y-6.0141
X5.5502Y-5.1378
X5.5719Y-5.8563
X5.5807Y-5.1801
X5.6112Y-7.3179
X5.6526Y-6.754
X5.6594Y-5.1801
X5.6831Y-5.3504
X5.6998Y-5.0571
X5.7087Y-5.2539
X5.7687Y-5.8563
X5.7697Y-6.6319
X5.8031Y-6.6959
X5.8907Y-5.8219
X5.8986Y-5.9852
X5.9094Y-6.6024
X5.9144Y-7.1722
X5.9144Y-7.251
X5.9222Y-7.3297
X5.9788Y-6.0143
X5.9882Y-5.1378
X6.0098Y-5.0325
X6.0344Y-6.8278
X6.0581Y-5.31
X6.0751Y-7.1169
X6.1093Y-7.314
X6.1191Y-7.3907
X6.1417Y-6.5669
X6.1457Y-5.8563
X6.1605Y-7.4317
X6.1762Y-5.9547
X6.2037Y-5.7697
X6.2087Y-6.6024
X6.2343Y-5.9852
X6.2343Y-6.0428
X6.2697Y-6.5679
X6.2982Y-5.1378
X6.2987Y-6.0143
X6.3071Y-7.4331
X6.312Y-6.872
X6.3219Y-5.8563
X6.3287Y-5.1801
X6.3349Y-7.3364
X6.3671Y-7.2638
X6.3728Y-7.3691
X6.375Y-5.2844
X6.4035Y-7.3061
X6.4114Y-6.8711
X6.4144Y-5.1781
X6.4518Y-5.2539
X6.498Y-7.2215
X6.5039Y-6.7864
X6.5157Y-6.8533
X6.5167Y-5.8563
X6.5197Y-6.6654
X6.5531Y-5.1732
X6.5679Y-5.9902
X6.5807Y-6.7274
X6.5817Y-6.6378
X6.5915Y-7.3081
X6.6014Y-7.3976
X6.6152Y-7.2215
X6.6644Y-5.2844
X6.6663Y-6.6014
X6.6988Y-5.8563
X6.7067Y-6.0187
X6.7372Y-5.1378
X6.7539Y-4.9882
X6.7539Y-6.8238
X6.8022Y-6.7579
X6.812Y-5.1801
X6.8293Y-6.8238
X6.8337Y-5.9902
X6.8638Y-6.6014
X6.878Y-6.6644
X6.8947Y-5.8563
X6.9163Y-7.2874
X6.9203Y-5.9547
X6.9459Y-6.6664
X6.9823Y-6.0187
X7.0049Y-6.6516
X7.0518Y-5.0709
X7.0719Y-5.8563
X7.0778Y-6.9508
X7.0797Y-5.1073
X7.1201Y-5.2539
X7.1358Y-5.3051
X7.1693Y-5.1801
X7.1969Y-6.7785
X7.2028Y-5.0561
X7.2648Y-6.0167
X7.2677Y-5.8514
X7.2717Y-7.3573
X7.2923Y-5.9852
X7.3016Y-7.3274
X7.313Y-7.3966
X7.3307Y-6.6496
X7.3425Y-7.3671
X7.3622Y-6.5614
X7.3691Y-6.6664
X7.3858Y-5.8061
X7.3858Y-5.7274
X7.3878Y-6.8681
X7.3907Y-6.9163
X7.3908Y-6.0845
X7.3937Y-6.7274
X7.4104Y-6.6014
X7.4105Y-7.0423
X7.4393Y-7.0131
X7.4882Y-5.1526
X7.501Y-6.1073
X7.5128Y-5.0305
X7.5157Y-6.0394
X7.5236Y-6.5669
X7.5335Y-5.3465
X7.5551Y-6.6752
X7.5709Y-7.0157
X7.5787Y-5.9547
X7.5906Y-6.0669
X7.6019Y-6.1186
X7.6024Y-6.439
X7.6043Y-7.1073
X7.6181Y-6.7963
X7.6191Y-6.559
X7.6388Y-6.0571
X7.6457Y-5.8563
X7.6506Y-6.7628
X7.6673Y-6.559
X7.6811Y-5.9921
X7.6811Y-7.2082
X7.6821Y-6.7955
X7.7008Y-7.1004
X7.7037Y-6.5738
X7.7126Y-6.7707
X7.7254Y-5.7785
X7.7349Y-6.4951
X7.7411Y-5.9832
X7.7519Y-6.7697
X7.7545Y-5.152
X7.7667Y-6.5561
X7.7687Y-7.0335
X7.7894Y-5.2854
X7.8018Y-5.0089
X7.8051Y-6.0217
X7.8071Y-5.2106
X7.8238Y-5.8563
X7.8386Y-6.8012
X7.8391Y-6.8509
X7.8396Y-7.0118
X7.8652Y-5.9459
X7.8691Y-6.8819
X7.8701Y-7.2087
X7.9232Y-5.2293
X7.9281Y-5.9715
X7.9291Y-5.3031
X7.939Y-5.0089
X7.9793Y-5.1998
X8.0182Y-5.3253
X8.0197Y-5.8563
X8.0236Y-6.8514
X8.0482Y-6.6526
X8.0512Y-5.1909
X8.06Y-6.4764
X8.0807Y-5.3199
X8.0817Y-6.5916
X8.0925Y-6.253
X8.0984Y-6.0452
X8.0994Y-6.0059
X8.1132Y-6.9094
X8.1161Y-5.1998
X8.1161Y-5.2963
X8.1358Y-4.5463
X8.1387Y-6.0034
X8.1398Y-7.0059
X8.1398Y-7.0699
X8.1437Y-6.5916
X8.1486Y-5.8327
X8.1683Y-6.2353
X8.1683Y-7.0374
X8.1683Y-7.1004
X8.208Y-4.5532
X8.2362Y-4.9665
X8.2382Y-5.1516
X8.2411Y-7.1614
X8.248Y-6.813
X8.2695Y-7.084
X8.2703Y-6.7313
X8.2703Y-6.7707
X8.2972Y-6.6831
X8.3071Y-5.1142
X8.3273Y-6.7717
X8.3273Y-6.9291
X8.3366Y-7.1575
X8.357Y-6.8051
X8.3612Y-6.7411
X8.3627Y-6.5661
X8.3927Y-6.5916
X8.3967Y-5.8484
X8.4247Y-5.9729
X8.4518Y-5.1644
X8.4862Y-6.7106
X8.5128Y-5.1644
X8.5217Y-6.0167
X8.5256Y-6.6831
X8.5591Y-5.2963
X8.5719Y-5.8563
X8.5827Y-6.5916
X8.5921Y-5.2622
X8.6058Y-5.1767
X8.6161Y-6.7116
X8.6171Y-5.5049
X8.6329Y-5.8858
X8.6457Y-4.9793
X8.6781Y-5.0089
X8.6791Y-5.2628
X8.69Y-5.1703
X8.7008Y-5.0689
X8.7077Y-5.8858
X8.7402Y-5.1703
X8.7431Y-7.2411
X8.7667Y-5.8543
X8.7687Y-5.2933
X8.7697Y-6.5916
X8.7943Y-6.6526
X8.7982Y-6.0098
X8.8238Y-5.7116
X8.8241Y-5.8553
X8.8248Y-6.9882
X8.8327Y-7.3563
X8.8602Y-6.6831
X8.8642Y-5.2933
X8.8888Y-7.2242
X8.8898Y-5.81
X8.8898Y-6.0384
X8.9488Y-6.5916
X8.9498Y-7.2195
X8.9656Y-6.7116
X8.9824Y-6.0344
X8.9862Y-5.1427
X9.001Y-5.188
X9.0059Y-6.6526
X9.0256Y-5.0256
X9.0541Y-6.1024
X9.0669Y-6.5916
X9.0699Y-6.1604
X9.0768Y-5.9885
X9.1014Y-6.0669
X9.1427Y-6.5404
X9.1437Y-5.8553
X9.1441Y-6.7418
X9.1446Y-6.6004
X9.1707Y-6.8076
X9.1726Y-5.958
X9.1729Y-6.6287
X9.1979Y-5.7559
X9.2254Y-5.8553
X9.2254Y-5.9931
X9.2264Y-7.2195
X9.2264Y-7.2588
X9.2382Y-4.9616
X9.2628Y-6.5522
X9.2638Y-6.6496
X9.2677Y-6.0325
X9.2677Y-6.7598
X9.3018Y-4.9636
X9.3018Y-5.0874
X9.3041Y-7.2874
X9.3219Y-5.8553
X9.3307Y-5.1162
X9.3479Y-7.218
X9.3839Y-5.3445
X9.3868Y-5.2628
X9.4203Y-5.189
X9.4291Y-6.8907
X9.5177Y-5.8553
X9.5768Y-6.5305
X9.5797Y-6.8218
X9.6078Y-6.7648
X9.6211Y-6.6717
X9.6407Y-5.189
X9.6496Y-6.7327
X9.6526Y-5.9885
X9.6722Y-5.2972
X9.6988Y-6.6717
X9.7037Y-5.8553
X9.7156Y-6.7628
X9.7382Y-5.1644
X9.748Y-4.9902
X9.7539Y-6.8819
X9.7667Y-6.0325
X9.7972Y-7.186
X9.7972Y-7.3977
X9.8012Y-6.6717
X9.8012Y-6.7579
X9.8386Y-6.8799
X9.8435Y-6.7579
X9.8494Y-6.003
X9.8917Y-7.3662
X9.8947Y-5.8553
X9.8986Y-5.7165
X9.9193Y-7.2874
X9.9216Y-5.958
X9.9505Y-7.3954
X10.0315Y-6.0325
X10.0508Y-5.1447
X10.0719Y-5.8553
X10.0728Y-6.6717
X10.1093Y-5.189
X10.1417Y-5.2854
X10.1909Y-5.189
X10.2008Y-7.1821
X10.2031Y-5.0555
X10.2062Y-5.3096
X10.2303Y-7.249
X10.253Y-5.25
X10.2667Y-7.1801
X10.2677Y-5.8553
X10.2697Y-6.6717
X10.2953Y-6.7327
X10.3258Y-6.7618
X10.3366Y-5.9885
X10.3573Y-6.6585
X10.376Y-7.3917
X10.3947Y-5.8061
X10.3967Y-6.685
X10.436Y-7.3307
X10.4612Y-6.7602
X10.4707Y-6.8128
X10.4872Y-5.124
X10.5207Y-7.2195
X10.5217Y-5.0561
X10.5453Y-6.0551
X10.5719Y-5.2884
X10.5915Y-7.2195
X10.6122Y-6.6329
X10.6427Y-6.6717
X10.6447Y-5.8553
X10.6693Y-6.7579
X10.6716Y-5.958
X10.7008Y-5.7805
X10.7215Y-5.9885
X10.7215Y-6.0837
X10.7372Y-7.189
X10.7717Y-6.5502
X10.7913Y-6.0551
X10.8012Y-5.124
X10.8258Y-5.8553
X10.8307Y-5.189
X10.8494Y-7.2825
X10.8711Y-5.2795
X10.8823Y-7.189
X10.9203Y-5.1821
X10.9715Y-5.25
X11.0187Y-5.8553
X11.0197Y-6.6717
X11.0472Y-6.7327
X11.0512Y-5.189
X11.0531Y-6.6329
X11.0778Y-6.5177
X11.1033Y-5.9885
X11.1073Y-6.7598
X11.1713Y-7.253
X11.1978Y-5.8553
X11.2382Y-5.124
X11.2382Y-5.1634
X11.2559Y-4.9823
X11.3169Y-7.3917
X11.3474Y-7.3307
X11.3937Y-5.7126
X11.3947Y-5.8553
X11.4354Y-5.958
X11.4961Y-6.6575
X11.5246Y-6.0738
X11.5518Y-5.074
X11.5719Y-5.8553
X11.5719Y-5.9885
X11.5807Y-5.1073
X11.6339Y-7.4094
X11.6358Y-5.2795
X11.6543Y-6.7579
X11.6555Y-7.185
X11.6565Y-5.188
X11.6752Y-6.5266
X11.6973Y-5.0565
X11.7067Y-6.6191
X11.7146Y-5.25
X11.8868Y-6.6683
X11.9567Y-7.189
X12.002Y-5.0157
X12.0408Y-5.1079
X12.0522Y-6.6717
X12.0659Y-7.2825
X12.0748Y-6.7327
X12.0758Y-7.1801
X12.0827Y-6.8031
X12.0906Y-6.6191
X12.0994Y-6.4636
X12.1772Y-5.372
X12.186Y-6.7579
X12.2362Y-5.8573
X12.2726Y-6.6717
X12.2736Y-6.0315
X12.2736Y-6.6132
X12.3022Y-5.9885
X12.3307Y-6.6132
X12.3504Y-5.8061
X12.3819Y-7.25
X12.3898Y-6.7598
X12.4898Y-5.127
X12.5187Y-5.1811
X12.5453Y-7.3917
X12.5679Y-5.2785
X12.5728Y-7.3307
X12.6132Y-5.1811
X12.6132Y-5.8573
X12.624Y-6.06
X12.647Y-5.958
X12.6768Y-6.6132
X12.6772Y-5.7746
X12.6791Y-5.247
X12.688Y-5.9941
X12.7047Y-6.6717
X12.7047Y-6.7579
X12.7047Y-7.189
X12.7047Y-7.4202
X12.7598Y-5.1811
X12.7756Y-7.2844
X12.7904Y-5.8573
X12.8199Y-7.2864
X12.8287Y-7.4202
X12.8317Y-5.9885
X12.8533Y-6.8031
X12.8661Y-5.8573
X12.8858Y-6.6717
X12.8907Y-6.0325
X12.8986Y-7.2047
X12.9419Y-4.9852
X12.9961Y-5.125
X13.0699Y-5.1535
X13.0827Y-6.5089
X13.0827Y-6.6717
X13.0866Y-7.2215
X13.1083Y-6.7327
X13.1132Y-6.6132
X13.1781Y-6.7579
X13.1949Y-6.6575
X13.2864Y-7.3917
X13.3189Y-7.3307
X13.3971Y-7.4306
X13.4144Y-7.2146
X13.4252Y-5.1152
X13.4252Y-5.3474
X13.4262Y-5.0679
X13.4341Y-6.0325
X13.4557Y-5.8524
X13.4557Y-5.9885
X13.4567Y-7.3307
X13.4695Y-5.2431
X13.4862Y-7.2146
X13.5Y-7.3307
X13.5276Y-5.2559
X13.5344Y-5.1821
X13.5453Y-6.0325
X13.5679Y-5.8061
X13.5797Y-7.3002
X13.6063Y-5.1771
X13.8632Y-5.1496
X13.8917Y-5.7815
X13.8937Y-5.0118
T2
G00X7.9362Y-4.2569
M15
G01X7.9362Y-4.2805
M16
G05
G00X7.9362Y-4.4116
M15
G01X7.9362Y-4.4549
M16
G05
G00X8.2764Y-4.2569
M15
G01X8.2764Y-4.2805
M16
G05
G00X8.2764Y-4.4116
M15
G01X8.2764Y-4.4549
M16
G05
T0
M30
